<?xml version="1.0" encoding="UTF-8"?>
<svg id="Frame3" xmlns="http://www.w3.org/2000/svg" viewBox="0 0 1920 1080">
  <defs>
    <style>
      .cls-1 {
        fill: #8c7a5c;
      }

      .cls-2 {
        fill: #c9b6c2;
      }

      .cls-3 {
        fill: #c7a7bb;
      }
    </style>
  </defs>
  <g>
    <path class="cls-1" d="m1090.6,444.2c6.55,16.93,5.66,54.61,3.87,129.97-1.81,76.26-6.56,110.91,10.83,135.3,5.97,8.37,12.05,12.04,23.99,29.83,11.07,16.49,25.69,42.92,22.44,47.94-5.97,9.23-66.3-63.73-81.24-45.81-8.13,9.76,2.97,38.48-5.42,45.81-8.85,7.74-23.27-22.47-47.97-22.37-21.13.08-31.34,22.26-36.37,17.05-9.17-9.51,30.05-77.71,43.33-171.52,6.55-46.28,13.2-84.01,1.55-125.18-14-49.46-46.51-80.05-42.56-86.83,3.57-6.11,28.48,21.35,35.59,12.78,12.92-15.56-47.1-133.05-39.46-140.63,3.15-3.13,16.67,13.63,18.57,15.98,12.01,14.89,15.51,27.71,17.8,26.63,5.32-2.51-8.96-74.35-3.87-76.71,2.96-1.37,7.39,23.08,17.02,24.5,15.68,2.32,29.74-58.6,37.14-55.4,3.31,1.43,3.92,15.12,2.32,26.63-3.79,27.26-18.87,34.52-30.18,60.73-1.72,3.98-13.14,30.45-10.83,56.46,3.92,44.31,43.82,44.11,63.45,94.82Z"/>
    <path class="cls-2" d="m1149.88,238.79c-.24,7.46,4.56,14.21,5.36,15.32,4.23,5.93,7.39,5.1,11.31,10.85,3.76,5.52,1.97,7.94,5.36,17.24,4.42,12.14,9.21,12.82,8.93,18.52-.41,8.28-11.07,17.64-21.52,17.88-12.71.29-15.82-13.13-30.28-14.68-10.92-1.17-11.57,6.45-25.6,8.3-14.82,1.95-34.97-3.63-43.47-17.88-4.39-7.37-3.8-13.93-8.4-15.32-5.38-1.63-8.19,6.76-18.39,10.22-12.12,4.11-17.55-4.56-26.2,0-8.12,4.28-4.51,12.54-14.29,24.26-10.34,12.39-21.65,11.9-22.63,20.43-.78,6.82,6.11,10.29,4.17,15.96-1.91,5.57-8.68,3.53-13.69,10.22-4.84,6.45-1.33,12.05-5.36,19.15-3.91,6.89-11.38,8.96-18.23,10.85-18.38,5.09-24.71-3.3-41.31,1.28-13.15,3.63-13.12,9.98-20.24,9.58-22.22-1.26-49.19-64.57-30.91-95.77,7.02-11.98,16.17-11.48,20.79-25.54,5.92-18-6.06-28.04.6-44.05,5.14-12.38,13.38-8.97,24.41-24.26,13.28-18.4,6.6-30.61,17.27-39.59,12.15-10.22,21.68,4.89,47.63-1.28,22.56-5.36,36.43-21.78,54.36-17.88,5.25,1.14,10,3.36,10,3.36,6.45,3.33,10.36,8.19,18.88,14.28,1.73,1.23,10.6,8.48,20.79,11.74,14.24,4.55,17.2-2.84,34.1-.64,17.73,2.3,18.33,10.93,33.94,10.85,13.1-.07,17.07-6.17,25.6-2.55,7.49,3.17,14.87,12.31,14.29,21.07-.82,12.35-16.84,14.79-17.27,28.09Z"/>
    <path class="cls-2" d="m974.16,384.06c-1.25,2.64-.02,3.59-1.12,6.04-2.57,5.73-10.53,3.37-13.69,8.3-2.95,4.6-.26,13.25,4.34,18.08,4.32,4.53,11.26,6.35,16.47,4.28.86-.34,1.52-.8,2.04-1.35,3.87-4.13,2.29-9.18,4.21-14.18,3.53-9.23,16.82-8.44,17.01-14.48.07-2.06-1.41-4.21-2.98-5.11-3.09-1.77-6.03,1.65-8.93,0-2.67-1.52-1.39-5.1-3.97-6.96-3.48-2.52-10.98.32-13.37,5.39Z"/>
  </g>
  <path class="cls-3" d="m1928,694v387H388.14v-387c452.36-17.36,717.71-9.22,879.02,2.38,43.67,3.14,168.8,12.95,338.25,12.05,6.41-.03,12.9-.07,19.45-.14,46.25-.46,89.41-1.68,128.9-3.31,71.12-2.94,130.36-7.25,174.24-10.98Z"/>
  <rect class="cls-3" y="694" width="415" height="387"/>
  <path class="cls-3" d="m875.82,693.29c4.79-9.65,2.22-23.78-2.73-32-6.56-10.88-16.28-9.7-21.82-22-4.59-10.19-.47-16.67-5.45-21-6.11-5.32-17.59-.14-24.55,3-13.52,6.1-13.78,11.35-20.91,14-22.88,8.51-45.38-36.14-67.73-28-10.69,3.89-10.59,16.27-23.18,18-12.05,1.65-17.23-8.4-26.37-5-10.49,3.9-7.71,18.65-20,26-10.58,6.33-17.88-1.48-25.46,5-8.05,6.89-9.56,24.06-4.55,35.5,6.34,14.47,23.01,19.58,49.09,23.5,43.2,6.49,78.96,4.68,94.16,3.5,1.48-.11,2.93-.24,5.85-.5,83.7-7.33,90.69-14.05,93.64-20Z"/>
</svg>