<?xml version="1.0" encoding="UTF-8"?>
<svg id="Frame6" xmlns="http://www.w3.org/2000/svg" viewBox="0 0 1920 1080">
  <defs>
    <style>
      .cls-1 {
        fill: #33232d;
      }
    </style>
  </defs>
  <path class="cls-1" d="m1926,677.12v378.92H389.35v-378.92c312.7-13.71,665.16-20.74,1050.04-14.58.65.01,1.32.02,1.96.03,54.92.88,109.06,2.01,162.32,3.37,111.16,2.82,218.66,6.62,322.32,11.17Z"/>
  <path class="cls-1" d="m673.95,414.12c-25.89,62.62-4.1,140.48,27.98,186.37,8.48,12.13,31.63,43.96,72.64,60.14,52.83,20.84,92.16-1.41,102.43,13.38,16.29,23.47-57.9,115.36-129,170-162.14,124.61-494.14,196.77-728,16C-264.95,639.74-257.17,157.52-19-51c207.66-181.8,589.49-154.7,665-16,25.76,47.32,57.47,184.12,14.25,243.54-7.14,9.81-26.34,33.63-23.82,61.92,2.01,22.58,18.75,26.44,19.65,52.4.78,22.51-11.39,31.4-4.76,43.47,7.7,14.02,27.55,8.26,36.32,20.84,10.22,14.65-5.35,38.76-13.69,58.95Z"/>
  <rect class="cls-1" y="754" width="415" height="302"/>
  <path class="cls-1" d="m1319,482c4.9,14.76,3.04,28.65-.88,55.84-5.66,39.22-13.67,94.77-51.12,139.16-38.9,46.11-73.74,37.72-76,58-7.27,65.26,353.24,153.77,477.94,179.8,8.74,1.82,17.6,3.66,29.68,5.03,117.37,13.36,235.25-49.51,294.5-116,55.29-62.04,46.44-112.56,64-386.5,22.4-349.43,45.72-406.49-7-460.5-16.66-17.07-44.72-37.74-351.5-42-313.06-4.35-372.75,15.94-420.5,59-47.44,42.79-104.63,127.48-85,198,10.74,38.58,35.97,42.41,48,92,16.74,69.04-23.89,97.75,0,141,21.34,38.62,63.52,33.87,77.88,77.16Z"/>
</svg>