<?xml version="1.0" encoding="UTF-8"?>
<svg xmlns="http://www.w3.org/2000/svg" viewBox="0 0 1920 1080">
  <defs>
    <style>
      .cls-1 {
        fill: #8a5500;
        mix-blend-mode: darken;
        opacity: .44;
      }

      .cls-2 {
        fill: #ffd85f;
      }

      .cls-3 {
        fill: #d4ae39;
      }

      .cls-4 {
        isolation: isolate;
      }
    </style>
  </defs>
  <g class="cls-4">
    <g id="Frame2">
      <g>
        <path class="cls-2" d="m1258,262.73c0,17.6-14.27,31.88-31.88,31.88s-31.88-14.28-31.88-31.88,14.27-31.89,31.88-31.89,31.88,14.28,31.88,31.89Z"/>
        <circle class="cls-3" cx="1226.12" cy="262.73" r="24.82"/>
        <path class="cls-2" d="m1229.6,260.67l-2.03-.42v-6.76c.49.07.95.21,1.38.42.42.2.79.45,1.09.76.3.3.54.65.72,1.03.18.39.27.8.29,1.23h5.29c-.02-1.11-.24-2.11-.66-3.03-.42-.92-1.01-1.73-1.77-2.42-.76-.7-1.67-1.26-2.75-1.69-1.08-.43-2.27-.71-3.59-.84v-2.58h-2.66v2.58c-1.41.12-2.68.38-3.79.81-1.12.42-2.06.98-2.83,1.68-.77.69-1.36,1.52-1.77,2.47-.4.95-.61,2-.61,3.17,0,2,.6,3.64,1.79,4.92,1.19,1.29,2.93,2.2,5.22,2.73l1.99.47v7.07c-.59-.07-1.13-.2-1.62-.39-.49-.2-.91-.45-1.27-.76-.36-.31-.65-.67-.86-1.08-.2-.4-.33-.84-.37-1.31h-5.43c0,1.17.23,2.22.67,3.17.44.94,1.07,1.75,1.89,2.43.81.69,1.81,1.23,3,1.64,1.18.4,2.51.65,3.99.74v2.37h2.66v-2.41c1.48-.13,2.8-.41,3.96-.84,1.16-.43,2.13-.99,2.92-1.7.79-.71,1.4-1.55,1.81-2.52.41-.97.61-2.06.61-3.27,0-4.08-2.42-6.64-7.27-7.67Zm-4.69-.97c-1.15-.23-2.02-.61-2.61-1.15-.59-.54-.88-1.21-.88-2,0-.42.09-.81.26-1.18.17-.37.41-.69.72-.96.31-.27.68-.49,1.1-.66.42-.16.89-.25,1.41-.28v6.23Zm5.55,11.6c-.69.58-1.65.91-2.89.98v-6.6c1.34.25,2.33.65,2.96,1.18.64.54.95,1.25.95,2.12,0,.96-.34,1.74-1.02,2.32Z"/>
      </g>
      <g>
        <path class="cls-2" d="m948,628.73c0,17.6-14.27,31.88-31.88,31.88s-31.88-14.28-31.88-31.88,14.27-31.89,31.88-31.89,31.88,14.28,31.88,31.89Z"/>
        <circle class="cls-3" cx="916.12" cy="628.73" r="24.82"/>
        <path class="cls-2" d="m919.6,626.67l-2.03-.42v-6.76c.49.07.95.21,1.38.42.42.2.79.45,1.09.76.3.3.54.65.72,1.03.18.39.27.8.29,1.23h5.29c-.02-1.11-.24-2.11-.66-3.03-.42-.92-1.01-1.73-1.77-2.42-.76-.7-1.67-1.26-2.75-1.69-1.08-.43-2.27-.71-3.59-.84v-2.58h-2.66v2.58c-1.41.12-2.68.38-3.79.81-1.12.42-2.06.98-2.83,1.68-.77.69-1.36,1.52-1.77,2.47-.4.95-.61,2-.61,3.17,0,2,.6,3.64,1.79,4.92,1.19,1.29,2.93,2.2,5.22,2.73l1.99.47v7.07c-.59-.07-1.13-.2-1.62-.39-.49-.2-.91-.45-1.27-.76-.36-.31-.65-.67-.86-1.08-.2-.4-.33-.84-.37-1.31h-5.43c0,1.17.23,2.22.67,3.17.44.94,1.07,1.75,1.89,2.43.81.69,1.81,1.23,3,1.64,1.18.4,2.51.65,3.99.74v2.37h2.66v-2.41c1.48-.13,2.8-.41,3.96-.84,1.16-.43,2.13-.99,2.92-1.7.79-.71,1.4-1.55,1.81-2.52.41-.97.61-2.06.61-3.27,0-4.08-2.42-6.64-7.27-7.67Zm-4.69-.97c-1.15-.23-2.02-.61-2.61-1.15-.59-.54-.88-1.21-.88-2,0-.42.09-.81.26-1.18s.41-.69.72-.96c.31-.27.68-.49,1.1-.66.42-.16.89-.25,1.41-.28v6.23Zm5.55,11.6c-.69.58-1.65.91-2.89.98v-6.6c1.34.25,2.33.65,2.96,1.18.64.54.95,1.25.95,2.12,0,.96-.34,1.74-1.02,2.32Z"/>
      </g>
      <g>
        <path class="cls-2" d="m806,176.73c0,17.6-14.27,31.88-31.88,31.88s-31.88-14.28-31.88-31.88,14.27-31.89,31.88-31.89,31.88,14.28,31.88,31.89Z"/>
        <circle class="cls-3" cx="774.12" cy="176.73" r="24.82"/>
        <path class="cls-2" d="m777.6,174.67l-2.03-.42v-6.76c.49.07.95.21,1.38.42.42.2.79.45,1.09.76.3.3.54.65.72,1.03.18.39.27.8.29,1.23h5.29c-.02-1.11-.24-2.11-.66-3.03-.42-.92-1.01-1.73-1.77-2.42-.76-.7-1.67-1.26-2.75-1.69-1.08-.43-2.27-.71-3.59-.84v-2.58h-2.66v2.58c-1.41.12-2.68.38-3.79.81-1.12.42-2.06.98-2.83,1.68-.77.69-1.36,1.52-1.77,2.47-.4.95-.61,2-.61,3.17,0,2,.6,3.64,1.79,4.92,1.19,1.29,2.93,2.2,5.22,2.73l1.99.47v7.07c-.59-.07-1.13-.2-1.62-.39-.49-.2-.91-.45-1.27-.76-.36-.31-.65-.67-.86-1.08-.2-.4-.33-.84-.37-1.31h-5.43c0,1.17.23,2.22.67,3.17.44.94,1.07,1.75,1.89,2.43.81.69,1.81,1.23,3,1.64,1.18.4,2.51.65,3.99.74v2.37h2.66v-2.41c1.48-.13,2.8-.41,3.96-.84,1.16-.43,2.13-.99,2.92-1.7.79-.71,1.4-1.55,1.81-2.52.41-.97.61-2.06.61-3.27,0-4.08-2.42-6.64-7.27-7.67Zm-4.69-.97c-1.15-.23-2.02-.61-2.61-1.15-.59-.54-.88-1.21-.88-2,0-.42.09-.81.26-1.18s.41-.69.72-.96c.31-.27.68-.49,1.1-.66.42-.16.89-.25,1.41-.28v6.23Zm5.55,11.6c-.69.58-1.65.91-2.89.98v-6.6c1.34.25,2.33.65,2.96,1.18.64.54.95,1.25.95,2.12,0,.96-.34,1.74-1.02,2.32Z"/>
      </g>
      <g>
        <path class="cls-2" d="m714,774.73c0,17.6-14.27,31.88-31.88,31.88s-31.88-14.28-31.88-31.88,14.27-31.89,31.88-31.89,31.88,14.28,31.88,31.89Z"/>
        <circle class="cls-3" cx="682.12" cy="774.73" r="24.82"/>
        <path class="cls-2" d="m685.6,772.67l-2.03-.42v-6.76c.49.07.95.21,1.38.42.42.2.79.45,1.09.76.3.3.54.65.72,1.03.18.39.27.8.29,1.23h5.29c-.02-1.11-.24-2.11-.66-3.03-.42-.92-1.01-1.73-1.77-2.42-.76-.7-1.67-1.26-2.75-1.69-1.08-.43-2.27-.71-3.59-.84v-2.58h-2.66v2.58c-1.41.12-2.68.38-3.79.81-1.12.42-2.06.98-2.83,1.68-.77.69-1.36,1.52-1.77,2.47-.4.95-.61,2-.61,3.17,0,2,.6,3.64,1.79,4.92,1.19,1.29,2.93,2.2,5.22,2.73l1.99.47v7.07c-.59-.07-1.13-.2-1.62-.39-.49-.2-.91-.45-1.27-.76-.36-.31-.65-.67-.86-1.08-.2-.4-.33-.84-.37-1.31h-5.43c0,1.17.23,2.22.67,3.17.44.94,1.07,1.75,1.89,2.43.81.69,1.81,1.23,3,1.64,1.18.4,2.51.65,3.99.74v2.37h2.66v-2.41c1.48-.13,2.8-.41,3.96-.84,1.16-.43,2.13-.99,2.92-1.7.79-.71,1.4-1.55,1.81-2.52.41-.97.61-2.06.61-3.27,0-4.08-2.42-6.64-7.27-7.67Zm-4.69-.97c-1.15-.23-2.02-.61-2.61-1.15-.59-.54-.88-1.21-.88-2,0-.42.09-.81.26-1.18s.41-.69.72-.96c.31-.27.68-.49,1.1-.66.42-.16.89-.25,1.41-.28v6.23Zm5.55,11.6c-.69.58-1.65.91-2.89.98v-6.6c1.34.25,2.33.65,2.96,1.18.64.54.95,1.25.95,2.12,0,.96-.34,1.74-1.02,2.32Z"/>
      </g>
      <g>
        <path class="cls-2" d="m1450,158.73c0,17.6-14.27,31.88-31.88,31.88s-31.88-14.28-31.88-31.88,14.27-31.89,31.88-31.89,31.88,14.28,31.88,31.89Z"/>
        <circle class="cls-3" cx="1418.12" cy="158.73" r="24.82"/>
        <path class="cls-2" d="m1421.6,156.67l-2.03-.42v-6.76c.49.07.95.21,1.38.42.42.2.79.45,1.09.76.3.3.54.65.72,1.03.18.39.27.8.29,1.23h5.29c-.02-1.11-.24-2.11-.66-3.03-.42-.92-1.01-1.73-1.77-2.42-.76-.7-1.67-1.26-2.75-1.69-1.08-.43-2.27-.71-3.59-.84v-2.58h-2.66v2.58c-1.41.12-2.68.38-3.79.81-1.12.42-2.06.98-2.83,1.68-.77.69-1.36,1.52-1.77,2.47-.4.95-.61,2-.61,3.17,0,2,.6,3.64,1.79,4.92,1.19,1.29,2.93,2.2,5.22,2.73l1.99.47v7.07c-.59-.07-1.13-.2-1.62-.39-.49-.2-.91-.45-1.27-.76-.36-.31-.65-.67-.86-1.08-.2-.4-.33-.84-.37-1.31h-5.43c0,1.17.23,2.22.67,3.17.44.94,1.07,1.75,1.89,2.43.81.69,1.81,1.23,3,1.64,1.18.4,2.51.65,3.99.74v2.37h2.66v-2.41c1.48-.13,2.8-.41,3.96-.84,1.16-.43,2.13-.99,2.92-1.7.79-.71,1.4-1.55,1.81-2.52.41-.97.61-2.06.61-3.27,0-4.08-2.42-6.64-7.27-7.67Zm-4.69-.97c-1.15-.23-2.02-.61-2.61-1.15-.59-.54-.88-1.21-.88-2,0-.42.09-.81.26-1.18.17-.37.41-.69.72-.96.31-.27.68-.49,1.1-.66.42-.16.89-.25,1.41-.28v6.23Zm5.55,11.6c-.69.58-1.65.91-2.89.98v-6.6c1.34.25,2.33.65,2.96,1.18.64.54.95,1.25.95,2.12,0,.96-.34,1.74-1.02,2.32Z"/>
      </g>
      <g>
        <path class="cls-2" d="m1425,747.73c0,17.6-14.27,31.88-31.88,31.88s-31.88-14.28-31.88-31.88,14.27-31.89,31.88-31.89,31.88,14.28,31.88,31.89Z"/>
        <circle class="cls-3" cx="1393.12" cy="747.73" r="24.82"/>
        <path class="cls-2" d="m1396.6,745.67l-2.03-.42v-6.76c.49.07.95.21,1.38.42.42.2.79.45,1.09.76.3.3.54.65.72,1.03.18.39.27.8.29,1.23h5.29c-.02-1.11-.24-2.11-.66-3.03-.42-.92-1.01-1.73-1.77-2.42-.76-.7-1.67-1.26-2.75-1.69-1.08-.43-2.27-.71-3.59-.84v-2.58h-2.66v2.58c-1.41.12-2.68.38-3.79.81-1.12.42-2.06.98-2.83,1.68-.77.69-1.36,1.52-1.77,2.47-.4.95-.61,2-.61,3.17,0,2,.6,3.64,1.79,4.92,1.19,1.29,2.93,2.2,5.22,2.73l1.99.47v7.07c-.59-.07-1.13-.2-1.62-.39-.49-.2-.91-.45-1.27-.76-.36-.31-.65-.67-.86-1.08-.2-.4-.33-.84-.37-1.31h-5.43c0,1.17.23,2.22.67,3.17.44.94,1.07,1.75,1.89,2.43.81.69,1.81,1.23,3,1.64,1.18.4,2.51.65,3.99.74v2.37h2.66v-2.41c1.48-.13,2.8-.41,3.96-.84,1.16-.43,2.13-.99,2.92-1.7.79-.71,1.4-1.55,1.81-2.52.41-.97.61-2.06.61-3.27,0-4.08-2.42-6.64-7.27-7.67Zm-4.69-.97c-1.15-.23-2.02-.61-2.61-1.15-.59-.54-.88-1.21-.88-2,0-.42.09-.81.26-1.18.17-.37.41-.69.72-.96.31-.27.68-.49,1.1-.66.42-.16.89-.25,1.41-.28v6.23Zm5.55,11.6c-.69.58-1.65.91-2.89.98v-6.6c1.34.25,2.33.65,2.96,1.18.64.54.95,1.25.95,2.12,0,.96-.34,1.74-1.02,2.32Z"/>
      </g>
      <g>
        <path class="cls-2" d="m1062,785.73c0,17.6-14.27,31.88-31.88,31.88s-31.88-14.28-31.88-31.88,14.27-31.89,31.88-31.89,31.88,14.28,31.88,31.89Z"/>
        <circle class="cls-3" cx="1030.12" cy="785.73" r="24.82"/>
        <path class="cls-2" d="m1033.6,783.67l-2.03-.42v-6.76c.49.07.95.21,1.38.42.42.2.79.45,1.09.76.3.3.54.65.72,1.03.18.39.27.8.29,1.23h5.29c-.02-1.11-.24-2.11-.66-3.03-.42-.92-1.01-1.73-1.77-2.42-.76-.7-1.67-1.26-2.75-1.69-1.08-.43-2.27-.71-3.59-.84v-2.58h-2.66v2.58c-1.41.12-2.68.38-3.79.81-1.12.42-2.06.98-2.83,1.68-.77.69-1.36,1.52-1.77,2.47-.4.95-.61,2-.61,3.17,0,2,.6,3.64,1.79,4.92,1.19,1.29,2.93,2.2,5.22,2.73l1.99.47v7.07c-.59-.07-1.13-.2-1.62-.39-.49-.2-.91-.45-1.27-.76-.36-.31-.65-.67-.86-1.08-.2-.4-.33-.84-.37-1.31h-5.43c0,1.17.23,2.22.67,3.17.44.94,1.07,1.75,1.89,2.43.81.69,1.81,1.23,3,1.64,1.18.4,2.51.65,3.99.74v2.37h2.66v-2.41c1.48-.13,2.8-.41,3.96-.84,1.16-.43,2.13-.99,2.92-1.7.79-.71,1.4-1.55,1.81-2.52.41-.97.61-2.06.61-3.27,0-4.08-2.42-6.64-7.27-7.67Zm-4.69-.97c-1.15-.23-2.02-.61-2.61-1.15-.59-.54-.88-1.21-.88-2,0-.42.09-.81.26-1.18.17-.37.41-.69.72-.96.31-.27.68-.49,1.1-.66.42-.16.89-.25,1.41-.28v6.23Zm5.55,11.6c-.69.58-1.65.91-2.89.98v-6.6c1.34.25,2.33.65,2.96,1.18.64.54.95,1.25.95,2.12,0,.96-.34,1.74-1.02,2.32Z"/>
      </g>
      <g>
        <path class="cls-2" d="m421,403.73c0,17.6-14.27,31.88-31.88,31.88s-31.88-14.28-31.88-31.88,14.27-31.89,31.88-31.89,31.88,14.28,31.88,31.89Z"/>
        <circle class="cls-3" cx="389.12" cy="403.73" r="24.82"/>
        <path class="cls-2" d="m392.6,401.67l-2.03-.42v-6.76c.49.07.95.21,1.38.42.42.2.79.45,1.09.76.3.3.54.65.72,1.03.18.39.27.8.29,1.23h5.29c-.02-1.11-.24-2.11-.66-3.03-.42-.92-1.01-1.73-1.77-2.42-.76-.7-1.67-1.26-2.75-1.69-1.08-.43-2.27-.71-3.59-.84v-2.58h-2.66v2.58c-1.41.12-2.68.38-3.79.81-1.12.42-2.06.98-2.83,1.68-.77.69-1.36,1.52-1.77,2.47-.4.95-.61,2-.61,3.17,0,2,.6,3.64,1.79,4.92,1.19,1.29,2.93,2.2,5.22,2.73l1.99.47v7.07c-.59-.07-1.13-.2-1.62-.39-.49-.2-.91-.45-1.27-.76-.36-.31-.65-.67-.86-1.08-.2-.4-.33-.84-.37-1.31h-5.43c0,1.17.23,2.22.67,3.17.44.94,1.07,1.75,1.89,2.43.81.69,1.81,1.23,3,1.64,1.18.4,2.51.65,3.99.74v2.37h2.66v-2.41c1.48-.13,2.8-.41,3.96-.84,1.16-.43,2.13-.99,2.92-1.7.79-.71,1.4-1.55,1.81-2.52.41-.97.61-2.06.61-3.27,0-4.08-2.42-6.64-7.27-7.67Zm-4.69-.97c-1.15-.23-2.02-.61-2.61-1.15-.59-.54-.88-1.21-.88-2,0-.42.09-.81.26-1.18s.41-.69.72-.96c.31-.27.68-.49,1.1-.66.42-.16.89-.25,1.41-.28v6.23Zm5.55,11.6c-.69.58-1.65.91-2.89.98v-6.6c1.34.25,2.33.65,2.96,1.18.64.54.95,1.25.95,2.12,0,.96-.34,1.74-1.02,2.32Z"/>
      </g>
      <g>
        <path class="cls-2" d="m430,878.73c0,17.6-14.27,31.88-31.88,31.88s-31.88-14.28-31.88-31.88,14.27-31.89,31.88-31.89,31.88,14.28,31.88,31.89Z"/>
        <circle class="cls-3" cx="398.12" cy="878.73" r="24.82"/>
        <path class="cls-2" d="m401.6,876.67l-2.03-.42v-6.76c.49.07.95.21,1.38.42.42.2.79.45,1.09.76.3.3.54.65.72,1.03.18.39.27.8.29,1.23h5.29c-.02-1.11-.24-2.11-.66-3.03-.42-.92-1.01-1.73-1.77-2.42-.76-.7-1.67-1.26-2.75-1.69-1.08-.43-2.27-.71-3.59-.84v-2.58h-2.66v2.58c-1.41.12-2.68.38-3.79.81-1.12.42-2.06.98-2.83,1.68-.77.69-1.36,1.52-1.77,2.47-.4.95-.61,2-.61,3.17,0,2,.6,3.64,1.79,4.92,1.19,1.29,2.93,2.2,5.22,2.73l1.99.47v7.07c-.59-.07-1.13-.2-1.62-.39-.49-.2-.91-.45-1.27-.76-.36-.31-.65-.67-.86-1.08-.2-.4-.33-.84-.37-1.31h-5.43c0,1.17.23,2.22.67,3.17.44.94,1.07,1.75,1.89,2.43.81.69,1.81,1.23,3,1.64,1.18.4,2.51.65,3.99.74v2.37h2.66v-2.41c1.48-.13,2.8-.41,3.96-.84,1.16-.43,2.13-.99,2.92-1.7.79-.71,1.4-1.55,1.81-2.52.41-.97.61-2.06.61-3.27,0-4.08-2.42-6.64-7.27-7.67Zm-4.69-.97c-1.15-.23-2.02-.61-2.61-1.15-.59-.54-.88-1.21-.88-2,0-.42.09-.81.26-1.18s.41-.69.72-.96c.31-.27.68-.49,1.1-.66.42-.16.89-.25,1.41-.28v6.23Zm5.55,11.6c-.69.58-1.65.91-2.89.98v-6.6c1.34.25,2.33.65,2.96,1.18.64.54.95,1.25.95,2.12,0,.96-.34,1.74-1.02,2.32Z"/>
      </g>
      <g>
        <path class="cls-2" d="m757,551.73c0,17.6-14.27,31.88-31.88,31.88s-31.88-14.28-31.88-31.88,14.27-31.89,31.88-31.89,31.88,14.28,31.88,31.89Z"/>
        <circle class="cls-3" cx="725.12" cy="551.73" r="24.82"/>
        <path class="cls-2" d="m728.6,549.67l-2.03-.42v-6.76c.49.07.95.21,1.38.42.42.2.79.45,1.09.76.3.3.54.65.72,1.03.18.39.27.8.29,1.23h5.29c-.02-1.11-.24-2.11-.66-3.03-.42-.92-1.01-1.73-1.77-2.42-.76-.7-1.67-1.26-2.75-1.69-1.08-.43-2.27-.71-3.59-.84v-2.58h-2.66v2.58c-1.41.12-2.68.38-3.79.81-1.12.42-2.06.98-2.83,1.68-.77.69-1.36,1.52-1.77,2.47-.4.95-.61,2-.61,3.17,0,2,.6,3.64,1.79,4.92,1.19,1.29,2.93,2.2,5.22,2.73l1.99.47v7.07c-.59-.07-1.13-.2-1.62-.39-.49-.2-.91-.45-1.27-.76-.36-.31-.65-.67-.86-1.08-.2-.4-.33-.84-.37-1.31h-5.43c0,1.17.23,2.22.67,3.17.44.94,1.07,1.75,1.89,2.43.81.69,1.81,1.23,3,1.64,1.18.4,2.51.65,3.99.74v2.37h2.66v-2.41c1.48-.13,2.8-.41,3.96-.84,1.16-.43,2.13-.99,2.92-1.7.79-.71,1.4-1.55,1.81-2.52.41-.97.61-2.06.61-3.27,0-4.08-2.42-6.64-7.27-7.67Zm-4.69-.97c-1.15-.23-2.02-.61-2.61-1.15-.59-.54-.88-1.21-.88-2,0-.42.09-.81.26-1.18s.41-.69.72-.96c.31-.27.68-.49,1.1-.66.42-.16.89-.25,1.41-.28v6.23Zm5.55,11.6c-.69.58-1.65.91-2.89.98v-6.6c1.34.25,2.33.65,2.96,1.18.64.54.95,1.25.95,2.12,0,.96-.34,1.74-1.02,2.32Z"/>
      </g>
      <g>
        <path class="cls-2" d="m975,187.73c0,17.6-14.27,31.88-31.88,31.88s-31.88-14.28-31.88-31.88,14.27-31.89,31.88-31.89,31.88,14.28,31.88,31.89Z"/>
        <circle class="cls-3" cx="943.12" cy="187.73" r="24.82"/>
        <path class="cls-2" d="m946.6,185.67l-2.03-.42v-6.76c.49.07.95.21,1.38.42.42.2.79.45,1.09.76.3.3.54.65.72,1.03.18.39.27.8.29,1.23h5.29c-.02-1.11-.24-2.11-.66-3.03-.42-.92-1.01-1.73-1.77-2.42-.76-.7-1.67-1.26-2.75-1.69-1.08-.43-2.27-.71-3.59-.84v-2.58h-2.66v2.58c-1.41.12-2.68.38-3.79.81-1.12.42-2.06.98-2.83,1.68-.77.69-1.36,1.52-1.77,2.47-.4.95-.61,2-.61,3.17,0,2,.6,3.64,1.79,4.92,1.19,1.29,2.93,2.2,5.22,2.73l1.99.47v7.07c-.59-.07-1.13-.2-1.62-.39-.49-.2-.91-.45-1.27-.76-.36-.31-.65-.67-.86-1.08-.2-.4-.33-.84-.37-1.31h-5.43c0,1.17.23,2.22.67,3.17.44.94,1.07,1.75,1.89,2.43.81.69,1.81,1.23,3,1.64,1.18.4,2.51.65,3.99.74v2.37h2.66v-2.41c1.48-.13,2.8-.41,3.96-.84,1.16-.43,2.13-.99,2.92-1.7.79-.71,1.4-1.55,1.81-2.52.41-.97.61-2.06.61-3.27,0-4.08-2.42-6.64-7.27-7.67Zm-4.69-.97c-1.15-.23-2.02-.61-2.61-1.15-.59-.54-.88-1.21-.88-2,0-.42.09-.81.26-1.18s.41-.69.72-.96c.31-.27.68-.49,1.1-.66.42-.16.89-.25,1.41-.28v6.23Zm5.55,11.6c-.69.58-1.65.91-2.89.98v-6.6c1.34.25,2.33.65,2.96,1.18.64.54.95,1.25.95,2.12,0,.96-.34,1.74-1.02,2.32Z"/>
      </g>
      <g>
        <path class="cls-2" d="m849,475.73c0,17.6-14.27,31.88-31.88,31.88s-31.88-14.28-31.88-31.88,14.27-31.89,31.88-31.89,31.88,14.28,31.88,31.89Z"/>
        <circle class="cls-3" cx="817.12" cy="475.73" r="24.82"/>
        <path class="cls-2" d="m820.6,473.67l-2.03-.42v-6.76c.49.07.95.21,1.38.42.42.2.79.45,1.09.76.3.3.54.65.72,1.03.18.39.27.8.29,1.23h5.29c-.02-1.11-.24-2.11-.66-3.03-.42-.92-1.01-1.73-1.77-2.42-.76-.7-1.67-1.26-2.75-1.69-1.08-.43-2.27-.71-3.59-.84v-2.58h-2.66v2.58c-1.41.12-2.68.38-3.79.81-1.12.42-2.06.98-2.83,1.68-.77.69-1.36,1.52-1.77,2.47-.4.95-.61,2-.61,3.17,0,2,.6,3.64,1.79,4.92,1.19,1.29,2.93,2.2,5.22,2.73l1.99.47v7.07c-.59-.07-1.13-.2-1.62-.39-.49-.2-.91-.45-1.27-.76-.36-.31-.65-.67-.86-1.08-.2-.4-.33-.84-.37-1.31h-5.43c0,1.17.23,2.22.67,3.17.44.94,1.07,1.75,1.89,2.43.81.69,1.81,1.23,3,1.64,1.18.4,2.51.65,3.99.74v2.37h2.66v-2.41c1.48-.13,2.8-.41,3.96-.84,1.16-.43,2.13-.99,2.92-1.7.79-.71,1.4-1.55,1.81-2.52.41-.97.61-2.06.61-3.27,0-4.08-2.42-6.64-7.27-7.67Zm-4.69-.97c-1.15-.23-2.02-.61-2.61-1.15-.59-.54-.88-1.21-.88-2,0-.42.09-.81.26-1.18s.41-.69.72-.96c.31-.27.68-.49,1.1-.66.42-.16.89-.25,1.41-.28v6.23Zm5.55,11.6c-.69.58-1.65.91-2.89.98v-6.6c1.34.25,2.33.65,2.96,1.18.64.54.95,1.25.95,2.12,0,.96-.34,1.74-1.02,2.32Z"/>
      </g>
      <path class="cls-1" d="m357.24,403.73c0-17.61,14.27-31.89,31.88-31.89s31.88,14.28,31.88,31.89-14.27,31.88-31.88,31.88-31.88-14.28-31.88-31.88Z"/>
      <path class="cls-1" d="m430,878.73c0,17.6-14.27,31.88-31.88,31.88s-31.88-14.28-31.88-31.88,14.27-31.89,31.88-31.89,31.88,14.28,31.88,31.89Z"/>
      <path class="cls-1" d="m714,774.73c0,17.6-14.27,31.88-31.88,31.88s-31.88-14.28-31.88-31.88,14.27-31.89,31.88-31.89,31.88,14.28,31.88,31.89Z"/>
      <path class="cls-1" d="m757,551.73c0,17.6-14.27,31.88-31.88,31.88s-31.88-14.28-31.88-31.88,14.27-31.89,31.88-31.89,31.88,14.28,31.88,31.89Z"/>
      <path class="cls-1" d="m774.12,208.61c-17.61,0-31.88-14.28-31.88-31.88s14.27-31.89,31.88-31.89,31.88,14.28,31.88,31.89-14.27,31.88-31.88,31.88Z"/>
      <path class="cls-1" d="m849,475.73c0,17.6-14.27,31.88-31.88,31.88s-31.88-14.28-31.88-31.88,14.27-31.89,31.88-31.89,31.88,14.28,31.88,31.89Z"/>
      <path class="cls-1" d="m948,628.73c0,17.6-14.27,31.88-31.88,31.88s-31.88-14.28-31.88-31.88,14.27-31.89,31.88-31.89,31.88,14.28,31.88,31.89Z"/>
      <path class="cls-1" d="m975,187.73c0,17.6-14.27,31.88-31.88,31.88s-31.88-14.28-31.88-31.88,14.27-31.89,31.88-31.89,31.88,14.28,31.88,31.89Z"/>
      <path class="cls-1" d="m1062,785.73c0,17.6-14.27,31.88-31.88,31.88s-31.88-14.28-31.88-31.88,14.27-31.89,31.88-31.89,31.88,14.28,31.88,31.89Z"/>
      <path class="cls-1" d="m1258,262.73c0,17.6-14.27,31.88-31.88,31.88s-31.88-14.28-31.88-31.88,14.27-31.89,31.88-31.89,31.88,14.28,31.88,31.89Z"/>
      <path class="cls-1" d="m1425,747.73c0,17.6-14.27,31.88-31.88,31.88s-31.88-14.28-31.88-31.88,14.27-31.89,31.88-31.89,31.88,14.28,31.88,31.89Z"/>
      <path class="cls-1" d="m1450,158.73c0,17.6-14.27,31.88-31.88,31.88s-31.88-14.28-31.88-31.88,14.27-31.89,31.88-31.89,31.88,14.28,31.88,31.89Z"/>
    </g>
  </g>
</svg>