<?xml version="1.0" encoding="UTF-8"?>
<svg id="Frame1" xmlns="http://www.w3.org/2000/svg" viewBox="0 0 1920 1080">
  <defs>
    <style>
      .cls-1 {
        fill: #ffd85f;
      }

      .cls-2 {
        fill: #d4ae39;
      }
    </style>
  </defs>
  <g>
    <circle class="cls-1" cx="967.32" cy="138.92" r="35.08"/>
    <circle class="cls-2" cx="967.32" cy="138.92" r="27.31"/>
    <path class="cls-1" d="m965.99,156.92v-2.61c-1.63-.1-3.09-.37-4.4-.81-1.3-.45-2.4-1.04-3.3-1.8-.9-.75-1.59-1.65-2.08-2.68-.49-1.04-.73-2.2-.73-3.48h5.97c.04.52.18,1,.41,1.44.23.45.54.84.94,1.18.4.34.86.62,1.4.84.54.22,1.13.36,1.79.43v-7.77l-2.19-.52c-2.52-.58-4.44-1.58-5.74-3-1.31-1.41-1.96-3.22-1.96-5.42,0-1.28.22-2.44.67-3.49.45-1.04,1.09-1.95,1.94-2.72.85-.77,1.89-1.38,3.11-1.85,1.23-.47,2.62-.76,4.18-.89v-2.84h2.92v2.84c1.45.14,2.76.45,3.95.92,1.18.47,2.19,1.09,3.03,1.86.84.77,1.48,1.65,1.94,2.66.46,1.01.7,2.12.73,3.33h-5.83c-.01-.47-.12-.92-.31-1.35-.2-.42-.46-.8-.79-1.14s-.74-.61-1.2-.84c-.47-.22-.97-.38-1.51-.46v7.44l2.24.46c5.33,1.14,8,3.96,8,8.44,0,1.34-.23,2.54-.68,3.6-.45,1.07-1.11,1.99-1.98,2.77-.87.78-1.94,1.41-3.22,1.88-1.27.47-2.73.78-4.36.92v2.65h-2.92Zm-3.84-24.8c0,.88.32,1.61.97,2.2.65.59,1.61,1.01,2.87,1.26v-6.85c-.57.03-1.09.13-1.56.31-.47.18-.87.42-1.21.72-.34.3-.61.65-.79,1.05-.19.4-.28.84-.28,1.3Zm11.07,13.68c0-.96-.35-1.74-1.04-2.33-.7-.59-1.78-1.03-3.26-1.31v7.27c1.36-.08,2.42-.45,3.18-1.09.75-.64,1.13-1.49,1.13-2.55Z"/>
  </g>
  <g>
    <circle class="cls-1" cx="751.32" cy="379.92" r="35.08"/>
    <circle class="cls-2" cx="751.32" cy="379.92" r="27.31"/>
    <path class="cls-1" d="m749.99,397.92v-2.61c-1.63-.1-3.09-.37-4.4-.81-1.3-.45-2.4-1.04-3.3-1.8-.9-.75-1.59-1.65-2.08-2.68-.49-1.04-.73-2.2-.73-3.48h5.97c.04.52.18,1,.41,1.44.23.45.54.84.94,1.18.4.34.86.62,1.4.84.54.22,1.13.36,1.79.43v-7.77l-2.19-.52c-2.52-.58-4.44-1.58-5.74-3-1.31-1.41-1.96-3.22-1.96-5.42,0-1.28.22-2.44.67-3.49.45-1.04,1.09-1.95,1.94-2.72.85-.77,1.89-1.38,3.11-1.85,1.23-.47,2.62-.76,4.18-.89v-2.84h2.92v2.84c1.45.14,2.76.45,3.95.92,1.18.47,2.19,1.09,3.03,1.86.84.77,1.48,1.65,1.94,2.66.46,1.01.7,2.12.73,3.33h-5.83c-.01-.47-.12-.92-.31-1.35-.2-.42-.46-.8-.79-1.14s-.74-.61-1.2-.84c-.47-.22-.97-.38-1.51-.46v7.44l2.24.46c5.33,1.14,8,3.96,8,8.44,0,1.34-.23,2.54-.68,3.6-.45,1.07-1.11,1.99-1.98,2.77-.87.78-1.94,1.41-3.22,1.88-1.27.47-2.73.78-4.36.92v2.65h-2.92Zm-3.84-24.8c0,.88.32,1.61.97,2.2.65.59,1.61,1.01,2.87,1.26v-6.85c-.57.03-1.09.13-1.56.31-.47.18-.87.42-1.21.72-.34.3-.61.65-.79,1.05-.19.4-.28.84-.28,1.3Zm11.07,13.68c0-.96-.35-1.74-1.04-2.33-.7-.59-1.78-1.03-3.26-1.31v7.27c1.36-.08,2.42-.45,3.18-1.09.75-.64,1.13-1.49,1.13-2.55Z"/>
  </g>
  <g>
    <circle class="cls-1" cx="948.32" cy="462.92" r="35.08"/>
    <circle class="cls-2" cx="948.32" cy="462.92" r="27.31"/>
    <path class="cls-1" d="m946.99,480.92v-2.61c-1.63-.1-3.09-.37-4.4-.81-1.3-.45-2.4-1.04-3.3-1.8-.9-.75-1.59-1.65-2.08-2.68-.49-1.04-.73-2.2-.73-3.48h5.97c.04.52.18,1,.41,1.44.23.45.54.84.94,1.18.4.34.86.62,1.4.84.54.22,1.13.36,1.79.43v-7.77l-2.19-.52c-2.52-.58-4.44-1.58-5.74-3-1.31-1.41-1.96-3.22-1.96-5.42,0-1.28.22-2.44.67-3.49.45-1.04,1.09-1.95,1.94-2.72.85-.77,1.89-1.38,3.11-1.85,1.23-.47,2.62-.76,4.18-.89v-2.84h2.92v2.84c1.45.14,2.76.45,3.95.92,1.18.47,2.19,1.09,3.03,1.86.84.77,1.48,1.65,1.94,2.66.46,1.01.7,2.12.73,3.33h-5.83c-.01-.47-.12-.92-.31-1.35-.2-.42-.46-.8-.79-1.14s-.74-.61-1.2-.84c-.47-.22-.97-.38-1.51-.46v7.44l2.24.46c5.33,1.14,8,3.96,8,8.44,0,1.34-.23,2.54-.68,3.6-.45,1.07-1.11,1.99-1.98,2.77-.87.78-1.94,1.41-3.22,1.88-1.27.47-2.73.78-4.36.92v2.65h-2.92Zm-3.84-24.8c0,.88.32,1.61.97,2.2.65.59,1.61,1.01,2.87,1.26v-6.85c-.57.03-1.09.13-1.56.31-.47.18-.87.42-1.21.72-.34.3-.61.65-.79,1.05-.19.4-.28.84-.28,1.3Zm11.07,13.68c0-.96-.35-1.74-1.04-2.33-.7-.59-1.78-1.03-3.26-1.31v7.27c1.36-.08,2.42-.45,3.18-1.09.75-.64,1.13-1.49,1.13-2.55Z"/>
  </g>
  <g>
    <circle class="cls-1" cx="1101.32" cy="301.92" r="35.08"/>
    <circle class="cls-2" cx="1101.32" cy="301.92" r="27.31"/>
    <path class="cls-1" d="m1099.99,319.92v-2.61c-1.63-.1-3.09-.37-4.4-.81-1.3-.45-2.4-1.04-3.3-1.8-.9-.75-1.59-1.65-2.08-2.68-.49-1.04-.73-2.2-.73-3.48h5.97c.04.52.18,1,.41,1.44.23.45.54.84.94,1.18.4.34.86.62,1.4.84.54.22,1.13.36,1.79.43v-7.77l-2.19-.52c-2.52-.58-4.44-1.58-5.74-3-1.31-1.41-1.96-3.22-1.96-5.42,0-1.28.22-2.44.67-3.49.45-1.04,1.09-1.95,1.94-2.72.85-.77,1.89-1.38,3.11-1.85,1.23-.47,2.62-.76,4.18-.89v-2.84h2.92v2.84c1.45.14,2.76.45,3.95.92,1.18.47,2.19,1.09,3.03,1.86.84.77,1.48,1.65,1.94,2.66.46,1.01.7,2.12.73,3.33h-5.83c-.01-.47-.12-.92-.31-1.35-.2-.42-.46-.8-.79-1.14s-.74-.61-1.2-.84c-.47-.22-.97-.38-1.51-.46v7.44l2.24.46c5.33,1.14,8,3.96,8,8.44,0,1.34-.23,2.54-.68,3.6-.45,1.07-1.11,1.99-1.98,2.77-.87.78-1.94,1.41-3.22,1.88-1.27.47-2.73.78-4.36.92v2.65h-2.92Zm-3.84-24.8c0,.88.32,1.61.97,2.2.65.59,1.61,1.01,2.87,1.26v-6.85c-.57.03-1.09.13-1.56.31-.47.18-.87.42-1.21.72-.34.3-.61.65-.79,1.05-.19.4-.28.84-.28,1.3Zm11.07,13.68c0-.96-.35-1.74-1.04-2.33-.7-.59-1.78-1.03-3.26-1.31v7.27c1.36-.08,2.42-.45,3.18-1.09.75-.64,1.13-1.49,1.13-2.55Z"/>
  </g>
  <g>
    <circle class="cls-1" cx="1570.32" cy="272.92" r="35.08"/>
    <circle class="cls-2" cx="1570.32" cy="272.92" r="27.31"/>
    <path class="cls-1" d="m1568.99,290.92v-2.61c-1.63-.1-3.09-.37-4.4-.81-1.3-.45-2.4-1.04-3.3-1.8-.9-.75-1.59-1.65-2.08-2.68-.49-1.04-.73-2.2-.73-3.48h5.97c.04.52.18,1,.41,1.44.23.45.54.84.94,1.18.4.34.86.62,1.4.84.54.22,1.13.36,1.79.43v-7.77l-2.19-.52c-2.52-.58-4.44-1.58-5.74-3-1.31-1.41-1.96-3.22-1.96-5.42,0-1.28.22-2.44.67-3.49.45-1.04,1.09-1.95,1.94-2.72.85-.77,1.89-1.38,3.11-1.85,1.23-.47,2.62-.76,4.18-.89v-2.84h2.92v2.84c1.45.14,2.76.45,3.95.92,1.18.47,2.19,1.09,3.03,1.86.84.77,1.48,1.65,1.94,2.66.46,1.01.7,2.12.73,3.33h-5.83c-.01-.47-.12-.92-.31-1.35-.2-.42-.46-.8-.79-1.14s-.74-.61-1.2-.84c-.47-.22-.97-.38-1.51-.46v7.44l2.24.46c5.33,1.14,8,3.96,8,8.44,0,1.34-.23,2.54-.68,3.6-.45,1.07-1.11,1.99-1.98,2.77-.87.78-1.94,1.41-3.22,1.88-1.27.47-2.73.78-4.36.92v2.65h-2.92Zm-3.84-24.8c0,.88.32,1.61.97,2.2.65.59,1.61,1.01,2.87,1.26v-6.85c-.57.03-1.09.13-1.56.31-.47.18-.87.42-1.21.72-.34.3-.61.65-.79,1.05-.19.4-.28.84-.28,1.3Zm11.07,13.68c0-.96-.35-1.74-1.04-2.33-.7-.59-1.78-1.03-3.26-1.31v7.27c1.36-.08,2.42-.45,3.18-1.09.75-.64,1.13-1.49,1.13-2.55Z"/>
  </g>
  <g>
    <circle class="cls-1" cx="1338.32" cy="580.92" r="35.08"/>
    <circle class="cls-2" cx="1338.32" cy="580.92" r="27.31"/>
    <path class="cls-1" d="m1336.99,598.92v-2.61c-1.63-.1-3.09-.37-4.4-.81-1.3-.45-2.4-1.04-3.3-1.8-.9-.75-1.59-1.65-2.08-2.68-.49-1.04-.73-2.2-.73-3.48h5.97c.04.52.18,1,.41,1.44.23.45.54.84.94,1.18.4.34.86.62,1.4.84.54.22,1.13.36,1.79.43v-7.77l-2.19-.52c-2.52-.58-4.44-1.58-5.74-3-1.31-1.41-1.96-3.22-1.96-5.42,0-1.28.22-2.44.67-3.49.45-1.04,1.09-1.95,1.94-2.72.85-.77,1.89-1.38,3.11-1.85,1.23-.47,2.62-.76,4.18-.89v-2.84h2.92v2.84c1.45.14,2.76.45,3.95.92,1.18.47,2.19,1.09,3.03,1.86.84.77,1.48,1.65,1.94,2.66.46,1.01.7,2.12.73,3.33h-5.83c-.01-.47-.12-.92-.31-1.35-.2-.42-.46-.8-.79-1.14s-.74-.61-1.2-.84c-.47-.22-.97-.38-1.51-.46v7.44l2.24.46c5.33,1.14,8,3.96,8,8.44,0,1.34-.23,2.54-.68,3.6-.45,1.07-1.11,1.99-1.98,2.77-.87.78-1.94,1.41-3.22,1.88-1.27.47-2.73.78-4.36.92v2.65h-2.92Zm-3.84-24.8c0,.88.32,1.61.97,2.2.65.59,1.61,1.01,2.87,1.26v-6.85c-.57.03-1.09.13-1.56.31-.47.18-.87.42-1.21.72-.34.3-.61.65-.79,1.05-.19.4-.28.84-.28,1.3Zm11.07,13.68c0-.96-.35-1.74-1.04-2.33-.7-.59-1.78-1.03-3.26-1.31v7.27c1.36-.08,2.42-.45,3.18-1.09.75-.64,1.13-1.49,1.13-2.55Z"/>
  </g>
  <g>
    <circle class="cls-1" cx="906.32" cy="829.92" r="35.08"/>
    <circle class="cls-2" cx="906.32" cy="829.92" r="27.31"/>
    <path class="cls-1" d="m904.99,847.92v-2.61c-1.63-.1-3.09-.37-4.4-.81-1.3-.45-2.4-1.04-3.3-1.8-.9-.75-1.59-1.65-2.08-2.68-.49-1.04-.73-2.2-.73-3.48h5.97c.04.52.18,1,.41,1.44.23.45.54.84.94,1.18.4.34.86.62,1.4.84.54.22,1.13.36,1.79.43v-7.77l-2.19-.52c-2.52-.58-4.44-1.58-5.74-3-1.31-1.41-1.96-3.22-1.96-5.42,0-1.28.22-2.44.67-3.49.45-1.04,1.09-1.95,1.94-2.72.85-.77,1.89-1.38,3.11-1.85,1.23-.47,2.62-.76,4.18-.89v-2.84h2.92v2.84c1.45.14,2.76.45,3.95.92,1.18.47,2.19,1.09,3.03,1.86.84.77,1.48,1.65,1.94,2.66.46,1.01.7,2.12.73,3.33h-5.83c-.01-.47-.12-.92-.31-1.35-.2-.42-.46-.8-.79-1.14s-.74-.61-1.2-.84c-.47-.22-.97-.38-1.51-.46v7.44l2.24.46c5.33,1.14,8,3.96,8,8.44,0,1.34-.23,2.54-.68,3.6-.45,1.07-1.11,1.99-1.98,2.77-.87.78-1.94,1.41-3.22,1.88-1.27.47-2.73.78-4.36.92v2.65h-2.92Zm-3.84-24.8c0,.88.32,1.61.97,2.2.65.59,1.61,1.01,2.87,1.26v-6.85c-.57.03-1.09.13-1.56.31-.47.18-.87.42-1.21.72-.34.3-.61.65-.79,1.05-.19.4-.28.84-.28,1.3Zm11.07,13.68c0-.96-.35-1.74-1.04-2.33-.7-.59-1.78-1.03-3.26-1.31v7.27c1.36-.08,2.42-.45,3.18-1.09.75-.64,1.13-1.49,1.13-2.55Z"/>
  </g>
  <g>
    <circle class="cls-1" cx="1184.32" cy="877.92" r="35.08"/>
    <circle class="cls-2" cx="1184.32" cy="877.92" r="27.31"/>
    <path class="cls-1" d="m1182.99,895.92v-2.61c-1.63-.1-3.09-.37-4.4-.81-1.3-.45-2.4-1.04-3.3-1.8-.9-.75-1.59-1.65-2.08-2.68-.49-1.04-.73-2.2-.73-3.48h5.97c.04.52.18,1,.41,1.44.23.45.54.84.94,1.18.4.34.86.62,1.4.84.54.22,1.13.36,1.79.43v-7.77l-2.19-.52c-2.52-.58-4.44-1.58-5.74-3-1.31-1.41-1.96-3.22-1.96-5.42,0-1.28.22-2.44.67-3.49.45-1.04,1.09-1.95,1.94-2.72.85-.77,1.89-1.38,3.11-1.85,1.23-.47,2.62-.76,4.18-.89v-2.84h2.92v2.84c1.45.14,2.76.45,3.95.92,1.18.47,2.19,1.09,3.03,1.86.84.77,1.48,1.65,1.94,2.66.46,1.01.7,2.12.73,3.33h-5.83c-.01-.47-.12-.92-.31-1.35-.2-.42-.46-.8-.79-1.14s-.74-.61-1.2-.84c-.47-.22-.97-.38-1.51-.46v7.44l2.24.46c5.33,1.14,8,3.96,8,8.44,0,1.34-.23,2.54-.68,3.6-.45,1.07-1.11,1.99-1.98,2.77-.87.78-1.94,1.41-3.22,1.88-1.27.47-2.73.78-4.36.92v2.65h-2.92Zm-3.84-24.8c0,.88.32,1.61.97,2.2.65.59,1.61,1.01,2.87,1.26v-6.85c-.57.03-1.09.13-1.56.31-.47.18-.87.42-1.21.72-.34.3-.61.65-.79,1.05-.19.4-.28.84-.28,1.3Zm11.07,13.68c0-.96-.35-1.74-1.04-2.33-.7-.59-1.78-1.03-3.26-1.31v7.27c1.36-.08,2.42-.45,3.18-1.09.75-.64,1.13-1.49,1.13-2.55Z"/>
  </g>
  <g>
    <circle class="cls-1" cx="541.32" cy="591.92" r="35.08"/>
    <circle class="cls-2" cx="541.32" cy="591.92" r="27.31"/>
    <path class="cls-1" d="m539.99,609.92v-2.61c-1.63-.1-3.09-.37-4.4-.81-1.3-.45-2.4-1.04-3.3-1.8-.9-.75-1.59-1.65-2.08-2.68-.49-1.04-.73-2.2-.73-3.48h5.97c.04.52.18,1,.41,1.44.23.45.54.84.94,1.18.4.34.86.62,1.4.84.54.22,1.13.36,1.79.43v-7.77l-2.19-.52c-2.52-.58-4.44-1.58-5.74-3-1.31-1.41-1.96-3.22-1.96-5.42,0-1.28.22-2.44.67-3.49.45-1.04,1.09-1.95,1.94-2.72.85-.77,1.89-1.38,3.11-1.85,1.23-.47,2.62-.76,4.18-.89v-2.84h2.92v2.84c1.45.14,2.76.45,3.95.92,1.18.47,2.19,1.09,3.03,1.86.84.77,1.48,1.65,1.94,2.66.46,1.01.7,2.12.73,3.33h-5.83c-.01-.47-.12-.92-.31-1.35-.2-.42-.46-.8-.79-1.14s-.74-.61-1.2-.84c-.47-.22-.97-.38-1.51-.46v7.44l2.24.46c5.33,1.14,8,3.96,8,8.44,0,1.34-.23,2.54-.68,3.6-.45,1.07-1.11,1.99-1.98,2.77-.87.78-1.94,1.41-3.22,1.88-1.27.47-2.73.78-4.36.92v2.65h-2.92Zm-3.84-24.8c0,.88.32,1.61.97,2.2.65.59,1.61,1.01,2.87,1.26v-6.85c-.57.03-1.09.13-1.56.31-.47.18-.87.42-1.21.72-.34.3-.61.65-.79,1.05-.19.4-.28.84-.28,1.3Zm11.07,13.68c0-.96-.35-1.74-1.04-2.33-.7-.59-1.78-1.03-3.26-1.31v7.27c1.36-.08,2.42-.45,3.18-1.09.75-.64,1.13-1.49,1.13-2.55Z"/>
  </g>
  <g>
    <circle class="cls-1" cx="444.32" cy="869.92" r="35.08"/>
    <circle class="cls-2" cx="444.32" cy="869.92" r="27.31"/>
    <path class="cls-1" d="m442.99,887.92v-2.61c-1.63-.1-3.09-.37-4.4-.81-1.3-.45-2.4-1.04-3.3-1.8-.9-.75-1.59-1.65-2.08-2.68-.49-1.04-.73-2.2-.73-3.48h5.97c.04.52.18,1,.41,1.44.23.45.54.84.94,1.18.4.34.86.62,1.4.84.54.22,1.13.36,1.79.43v-7.77l-2.19-.52c-2.52-.58-4.44-1.58-5.74-3-1.31-1.41-1.96-3.22-1.96-5.42,0-1.28.22-2.44.67-3.49.45-1.04,1.09-1.95,1.94-2.72.85-.77,1.89-1.38,3.11-1.85,1.23-.47,2.62-.76,4.18-.89v-2.84h2.92v2.84c1.45.14,2.76.45,3.95.92,1.18.47,2.19,1.09,3.03,1.86.84.77,1.48,1.65,1.94,2.66.46,1.01.7,2.12.73,3.33h-5.83c-.01-.47-.12-.92-.31-1.35-.2-.42-.46-.8-.79-1.14s-.74-.61-1.2-.84c-.47-.22-.97-.38-1.51-.46v7.44l2.24.46c5.33,1.14,8,3.96,8,8.44,0,1.34-.23,2.54-.68,3.6-.45,1.07-1.11,1.99-1.98,2.77-.87.78-1.94,1.41-3.22,1.88-1.27.47-2.73.78-4.36.92v2.65h-2.92Zm-3.84-24.8c0,.88.32,1.61.97,2.2.65.59,1.61,1.01,2.87,1.26v-6.85c-.57.03-1.09.13-1.56.31-.47.18-.87.42-1.21.72-.34.3-.61.65-.79,1.05-.19.4-.28.84-.28,1.3Zm11.07,13.68c0-.96-.35-1.74-1.04-2.33-.7-.59-1.78-1.03-3.26-1.31v7.27c1.36-.08,2.42-.45,3.18-1.09.75-.64,1.13-1.49,1.13-2.55Z"/>
  </g>
  <g>
    <circle class="cls-1" cx="457.32" cy="271.92" r="35.08"/>
    <circle class="cls-2" cx="457.32" cy="271.92" r="27.31"/>
    <path class="cls-1" d="m455.99,289.92v-2.61c-1.63-.1-3.09-.37-4.4-.81-1.3-.45-2.4-1.04-3.3-1.8-.9-.75-1.59-1.65-2.08-2.68-.49-1.04-.73-2.2-.73-3.48h5.97c.04.52.18,1,.41,1.44.23.45.54.84.94,1.18.4.34.86.62,1.4.84.54.22,1.13.36,1.79.43v-7.77l-2.19-.52c-2.52-.58-4.44-1.58-5.74-3-1.31-1.41-1.96-3.22-1.96-5.42,0-1.28.22-2.44.67-3.49.45-1.04,1.09-1.95,1.94-2.72.85-.77,1.89-1.38,3.11-1.85,1.23-.47,2.62-.76,4.18-.89v-2.84h2.92v2.84c1.45.14,2.76.45,3.95.92,1.18.47,2.19,1.09,3.03,1.86.84.77,1.48,1.65,1.94,2.66.46,1.01.7,2.12.73,3.33h-5.83c-.01-.47-.12-.92-.31-1.35-.2-.42-.46-.8-.79-1.14s-.74-.61-1.2-.84c-.47-.22-.97-.38-1.51-.46v7.44l2.24.46c5.33,1.14,8,3.96,8,8.44,0,1.34-.23,2.54-.68,3.6-.45,1.07-1.11,1.99-1.98,2.77-.87.78-1.94,1.41-3.22,1.88-1.27.47-2.73.78-4.36.92v2.65h-2.92Zm-3.84-24.8c0,.88.32,1.61.97,2.2.65.59,1.61,1.01,2.87,1.26v-6.85c-.57.03-1.09.13-1.56.31-.47.18-.87.42-1.21.72-.34.3-.61.65-.79,1.05-.19.4-.28.84-.28,1.3Zm11.07,13.68c0-.96-.35-1.74-1.04-2.33-.7-.59-1.78-1.03-3.26-1.31v7.27c1.36-.08,2.42-.45,3.18-1.09.75-.64,1.13-1.49,1.13-2.55Z"/>
  </g>
  <g>
    <circle class="cls-1" cx="1591.32" cy="649.92" r="35.08"/>
    <circle class="cls-2" cx="1591.32" cy="649.92" r="27.31"/>
    <path class="cls-1" d="m1589.99,667.92v-2.61c-1.63-.1-3.09-.37-4.4-.81-1.3-.45-2.4-1.04-3.3-1.8-.9-.75-1.59-1.65-2.08-2.68-.49-1.04-.73-2.2-.73-3.48h5.97c.04.52.18,1,.41,1.44.23.45.54.84.94,1.18.4.34.86.62,1.4.84.54.22,1.13.36,1.79.43v-7.77l-2.19-.52c-2.52-.58-4.44-1.58-5.74-3-1.31-1.41-1.96-3.22-1.96-5.42,0-1.28.22-2.44.67-3.49.45-1.04,1.09-1.95,1.94-2.72.85-.77,1.89-1.38,3.11-1.85,1.23-.47,2.62-.76,4.18-.89v-2.84h2.92v2.84c1.45.14,2.76.45,3.95.92,1.18.47,2.19,1.09,3.03,1.86.84.77,1.48,1.65,1.94,2.66.46,1.01.7,2.12.73,3.33h-5.83c-.01-.47-.12-.92-.31-1.35-.2-.42-.46-.8-.79-1.14s-.74-.61-1.2-.84c-.47-.22-.97-.38-1.51-.46v7.44l2.24.46c5.33,1.14,8,3.96,8,8.44,0,1.34-.23,2.54-.68,3.6-.45,1.07-1.11,1.99-1.98,2.77-.87.78-1.94,1.41-3.22,1.88-1.27.47-2.73.78-4.36.92v2.65h-2.92Zm-3.84-24.8c0,.88.32,1.61.97,2.2.65.59,1.61,1.01,2.87,1.26v-6.85c-.57.03-1.09.13-1.56.31-.47.18-.87.42-1.21.72-.34.3-.61.65-.79,1.05-.19.4-.28.84-.28,1.3Zm11.07,13.68c0-.96-.35-1.74-1.04-2.33-.7-.59-1.78-1.03-3.26-1.31v7.27c1.36-.08,2.42-.45,3.18-1.09.75-.64,1.13-1.49,1.13-2.55Z"/>
  </g>
  <g>
    <circle class="cls-1" cx="1096.32" cy="622.92" r="35.08"/>
    <circle class="cls-2" cx="1096.32" cy="622.92" r="27.31"/>
    <path class="cls-1" d="m1094.99,640.92v-2.61c-1.63-.1-3.09-.37-4.4-.81-1.3-.45-2.4-1.04-3.3-1.8-.9-.75-1.59-1.65-2.08-2.68-.49-1.04-.73-2.2-.73-3.48h5.97c.04.52.18,1,.41,1.44.23.45.54.84.94,1.18.4.34.86.62,1.4.84.54.22,1.13.36,1.79.43v-7.77l-2.19-.52c-2.52-.58-4.44-1.58-5.74-3-1.31-1.41-1.96-3.22-1.96-5.42,0-1.28.22-2.44.67-3.49.45-1.04,1.09-1.95,1.94-2.72.85-.77,1.89-1.38,3.11-1.85,1.23-.47,2.62-.76,4.18-.89v-2.84h2.92v2.84c1.45.14,2.76.45,3.95.92,1.18.47,2.19,1.09,3.03,1.86.84.77,1.48,1.65,1.94,2.66.46,1.01.7,2.12.73,3.33h-5.83c-.01-.47-.12-.92-.31-1.35-.2-.42-.46-.8-.79-1.14s-.74-.61-1.2-.84c-.47-.22-.97-.38-1.51-.46v7.44l2.24.46c5.33,1.14,8,3.96,8,8.44,0,1.34-.23,2.54-.68,3.6-.45,1.07-1.11,1.99-1.98,2.77-.87.78-1.94,1.41-3.22,1.88-1.27.47-2.73.78-4.36.92v2.65h-2.92Zm-3.84-24.8c0,.88.32,1.61.97,2.2.65.59,1.61,1.01,2.87,1.26v-6.85c-.57.03-1.09.13-1.56.31-.47.18-.87.42-1.21.72-.34.3-.61.65-.79,1.05-.19.4-.28.84-.28,1.3Zm11.07,13.68c0-.96-.35-1.74-1.04-2.33-.7-.59-1.78-1.03-3.26-1.31v7.27c1.36-.08,2.42-.45,3.18-1.09.75-.64,1.13-1.49,1.13-2.55Z"/>
  </g>
</svg>