<?xml version="1.0" encoding="UTF-8"?>
<svg id="Frame5" xmlns="http://www.w3.org/2000/svg" viewBox="0 0 1920 1080">
  <defs>
    <style>
      .cls-1 {
        fill: #22401a;
      }
    </style>
  </defs>
  <path class="cls-1" d="m1926,704.29l-7.34,378.72h-.67l-319.8.23-1212.05.85c0-42.71,13.35-337.09,13.35-379.8,309.52-6.19,634.89-8.92,974.75-7.05,75.42.42,150.08,1.06,223.95,1.91,111.04,1.26,220.35,2.99,327.81,5.13Z"/>
  <g>
    <path class="cls-1" d="m1220.47,620.7c25.74,79.33,36.18,92.46,27.98,108.96-14.86,29.92-76,40.72-94.67,20.24-16.07-17.62,10.44-46.2,10.72-119.68.18-47.37-10.65-87.6-22.63-88.72-6.71-.62-9.98,11.37-30.96,22.63-9.4,5.04-20.41,8.89-21.44,7.15-.82-1.4,4.95-6.01,25.6-23.22,22.51-18.76,25-21.06,25.6-25.6,1.36-10.18-9.06-13.84-22.03-36.92-7.98-14.19-13.31-29.3-10.72-30.96,4.11-2.63,24.68,30.68,36.92,26.2,6.92-2.53,3.81-14.45,14.29-23.82,11.08-9.9,27.99-8.61,28.58-6.55.71,2.49-22.04,7.55-22.03,16.67,0,5.77,9.1,9.93,9.53,10.12,9.64,4.29,15.48-2.09,28.58,0,9.92,1.58,18.38,7.11,17.86,9.53-.82,3.84-23.78-2.54-29.77,7.15-3.95,6.39,1.28,16.84,2.38,19.05,2.3,4.61,5.21,7.57,10.12,11.91,15.81,13.97,23.71,20.96,31.56,20.84,11.57-.18,18.79-11.05,19.65-10.12,1.07,1.16-9.28,18.9-23.22,19.65-14.64.78-23.13-17.71-27.98-15.48-8.7,4,11.45,66.74,16.08,80.98Z"/>
    <path class="cls-1" d="m1263.34,487.92c-3.96,4.52-11.59,10.93-97.35,15.48-38.69,2.05-40.67.94-56.86,3.57-25.95,4.22-42.13,10.55-45.25,5.36-4.99-8.31,31.34-33.07,25.01-47.04-4-8.82-20.87-4.26-23.22-10.72-5.13-14.08,63.74-67.34,100.33-48.82,14.27,7.22,11.32,19.13,27.09,26.79,28.26,13.73,55.89-15.66,72.05-3.57,12.94,9.68,13.12,41.93-1.79,58.95Z"/>
    <path class="cls-1" d="m1286.56,540.91c-1.2,8.76-13.53,14.93-22.03,13.1-8.59-1.85-9.92-11.13-20.24-12.5-5.25-.7-7.24,1.39-11.31-.6-5.34-2.6-9.27-9.76-7.15-13.69,1.71-3.15,6.86-3.39,10.72-3.57,7.29-.34,9.06,2.13,15.48,2.38,8.81.34,10.13-4.14,16.67-3.57,8.63.74,19.07,9.63,17.86,18.46Z"/>
  </g>
  <g>
    <path class="cls-1" d="m668.99,603.7c25.74,79.33,36.18,92.46,27.98,108.96-14.86,29.92-76,40.72-94.67,20.24-16.07-17.62,10.44-46.2,10.72-119.68.18-47.37-10.65-87.6-22.63-88.72-6.71-.62-9.98,11.37-30.96,22.63-9.4,5.04-20.41,8.89-21.44,7.15-.82-1.4,4.95-6.01,25.6-23.22,22.51-18.76,25-21.06,25.6-25.6,1.36-10.18-9.06-13.84-22.03-36.92-7.98-14.19-13.31-29.3-10.72-30.96,4.11-2.63,24.68,30.68,36.92,26.2,6.92-2.53,3.81-14.45,14.29-23.82,11.08-9.9,27.99-8.61,28.58-6.55.71,2.49-22.04,7.55-22.03,16.67,0,5.77,9.1,9.93,9.53,10.12,9.64,4.29,15.48-2.09,28.58,0,9.92,1.58,18.38,7.11,17.86,9.53-.82,3.84-23.78-2.54-29.77,7.15-3.95,6.39,1.28,16.84,2.38,19.05,2.3,4.61,5.21,7.57,10.12,11.91,15.81,13.97,23.71,20.96,31.56,20.84,11.57-.18,18.79-11.05,19.65-10.12,1.07,1.16-9.28,18.9-23.22,19.65-14.64.78-23.13-17.71-27.98-15.48-8.7,4,11.45,66.74,16.08,80.98Z"/>
    <path class="cls-1" d="m711.86,470.92c-3.96,4.52-11.59,10.93-97.35,15.48-38.69,2.05-40.67.94-56.86,3.57-25.95,4.22-42.13,10.55-45.25,5.36-4.99-8.31,31.34-33.07,25.01-47.04-4-8.82-20.87-4.26-23.22-10.72-5.13-14.08,63.74-67.34,100.33-48.82,14.27,7.22,11.32,19.13,27.09,26.79,28.26,13.73,55.89-15.66,72.05-3.57,12.94,9.68,13.12,41.93-1.79,58.95Z"/>
    <path class="cls-1" d="m735.08,523.91c-1.2,8.76-13.53,14.93-22.03,13.1-8.59-1.85-9.92-11.13-20.24-12.5-5.25-.7-7.24,1.39-11.31-.6-5.34-2.6-9.27-9.76-7.15-13.69,1.71-3.15,6.86-3.39,10.72-3.57,7.29-.34,9.06,2.13,15.48,2.38,8.81.34,10.13-4.14,16.67-3.57,8.63.74,19.07,9.63,17.86,18.46Z"/>
  </g>
  <path class="cls-1" d="m641.79,739.48c-19.72,23.34-45.85,14.17-138.14,20.24-95.51,6.29-132.08,20.37-145.88,0-11.87-17.52,11.65-33.17,11.31-84.55-.35-53.08-25.74-81.33-10.72-97.05,11.51-12.05,28.69,2.16,52.99-11.91,24.37-14.11,21.97-37.01,38.11-39.3,18.46-2.62,24.72,26.92,59.54,36.32,20.83,5.62,24.37-3.39,37.51,2.98,30.88,14.96,17.16,67.52,46.44,82.17,19.23,9.62,34.34-8.46,49.42,1.79,19.6,13.31,21.89,62.7-.6,89.31Z"/>
  <path class="cls-1" d="m987,735c-4.83,15.04-34.16,17.19-74.34,20.72-115.73,10.17-134.62,15.38-145.88,0-10.88-14.86-15.11-49.6-7.78-66.72,1.17-2.72,3.96-8.11,3-15-1.4-10.08-9.28-12.17-10-21-.61-7.4,4.16-15.21,10-19,8.85-5.75,15.07,1.04,26-3,14.54-5.38,13.35-21.02,24-23,12.03-2.24,16.58,17.19,33,19,18.88,2.08,28.3-21.92,43-18,14.42,3.85,17.93,30.32,26,29,3.63-.6,3.02-5.98,9-10,7.11-4.78,18.9-4.52,26,1,7.37,5.74,3.65,12.47,12,21,6.86,7.01,11.89,5.02,16,11,4.97,7.22,1.1,15.16,0,26-2.63,25.98,14.01,35.52,10,48Z"/>
  <path class="cls-1" d="m1501,756c-4.83,15.04-34.16,17.19-74.34,20.72-115.73,10.17-134.62,15.38-145.88,0-10.88-14.86-15.11-49.6-7.78-66.72,1.17-2.72,3.96-8.11,3-15-1.4-10.08-9.28-12.17-10-21-.61-7.4,4.16-15.21,10-19,8.85-5.75,15.07,1.04,26-3,14.54-5.38,13.35-21.02,24-23,12.03-2.24,16.58,17.19,33,19,18.88,2.08,28.3-21.92,43-18,14.42,3.85,17.93,30.32,26,29,3.63-.6,3.02-5.98,9-10,7.11-4.78,18.9-4.52,26,1,7.37,5.74,3.65,12.47,12,21,6.86,7.01,11.89,5.02,16,11,4.97,7.22,1.1,15.16,0,26-2.63,25.98,14.01,35.52,10,48Z"/>
  <rect class="cls-1" x="0" y="701.33" width="494" height="382.75"/>
</svg>