<?xml version="1.0" encoding="UTF-8"?>
<svg id="Frame4" xmlns="http://www.w3.org/2000/svg" viewBox="0 0 1920 1080">
  <defs>
    <style>
      .cls-1 {
        fill: #2a4f20;
      }
    </style>
  </defs>
  <path class="cls-1" d="m747.18,750.96s-2.11,18.66-15.48,31.29c-10.8,10.21-24.74,16.44-88.72,27.5-78.08,13.5-93.2,10.43-102.41,3.32-4.31-3.32-8.23-9.96-16.08-23.23-9.64-16.31-14.46-24.46-13.1-32.72,2.01-12.2,12.44-11.64,22.63-29.4,10.1-17.61,4.58-26.42,14.29-31.29,10.72-5.38,19.38,4.38,36.92.95,21.03-4.12,21.71-20.72,40.19-22.76,1.09-.12,2.86,0,6.37.12,23.71.88,27.06,5.26,39.77,5.07,17.64-.27,21.02-8.85,33.34-4.76,2.23.74,9.77,3.24,13.69,10.12,5.29,9.28-2.49,16.45,2.61,24.18,5.91,8.97,16.62,4.82,23.59,13.93,6.15,8.03,3.99,19.3,2.38,27.68Z"/>
  <path class="cls-1" d="m1292.18,750.96s-2.11,18.66-15.48,31.29c-10.8,10.21-24.74,16.44-88.72,27.5-78.08,13.5-93.2,10.43-102.41,3.32-4.31-3.32-8.23-9.96-16.08-23.23-9.64-16.31-14.46-24.46-13.1-32.72,2.01-12.2,12.44-11.64,22.63-29.4,10.1-17.61,4.58-26.42,14.29-31.29,10.72-5.38,19.38,4.38,36.92.95,21.03-4.12,21.71-20.72,40.19-22.76,1.09-.12,2.86,0,6.37.12,23.71.88,27.06,5.26,39.77,5.07,17.64-.27,21.02-8.85,33.34-4.76,2.23.74,9.77,3.24,13.69,10.12,5.29,9.28-2.49,16.45,2.61,24.18,5.91,8.97,16.62,4.82,23.59,13.93,6.15,8.03,3.99,19.3,2.38,27.68Z"/>
  <path class="cls-1" d="m1364.16,750.96s2.11,18.66,15.48,31.29c10.8,10.21,24.74,16.44,88.72,27.5,78.08,13.5,93.2,10.43,102.41,3.32,4.31-3.32,8.23-9.96,16.08-23.23,9.64-16.31,14.46-24.46,13.1-32.72-2.01-12.2-12.44-11.64-22.63-29.4-10.1-17.61-4.58-26.42-14.29-31.29-10.72-5.38-19.38,4.38-36.92.95-21.03-4.12-21.71-20.72-40.19-22.76-1.09-.12-2.86,0-6.37.12-23.71.88-27.06,5.26-39.77,5.07-17.64-.27-21.02-8.85-33.34-4.76-2.23.74-9.77,3.24-13.69,10.12-5.29,9.28,2.49,16.45-2.61,24.18-5.91,8.97-16.62,4.82-23.59,13.93-6.15,8.03-3.99,19.3-2.38,27.68Z"/>
  <path class="cls-1" d="m599.83,774.49c-3.6,12.92-21.82,16.36-28.35,17.6-14.96,2.83-31.36.83-99.43-22.58-83.07-28.58-96.78-38.73-102.98-49.17-2.9-4.88-4.03-12.27-6.31-27.03-2.79-18.14-4.19-27.21.58-33.23,7.06-8.9,17.18-3.16,34.65-12.44,17.32-9.2,15.5-19.16,27.17-18.2,12.87,1.06,17.4,13.37,36.23,19.47,22.57,7.31,30.14-5.85,49.32,1.86,13.05,5.24,11.42,12.08,31.21,27.11,25.33,19.24,40.9,17.84,49.23,30.48,6.35,9.64-2.14,11.32.4,31.3,2.42,19.03,11.06,24.87,8.28,34.84Z"/>
  <path class="cls-1" d="m1928,751.09c0,16.64-5.37,328.86-5.37,345.5H389.14l5.37-370.78c508.36,29.58,773.09,30.49,921.69,25.28,31.44-1.1,136.63-5.24,282.07-5.66,12.72-.04,25.7-.05,39.01-.03,120.62.22,219.18,3.07,282.68,5.39,2.76.1,5.45.2,8.05.3Z"/>
  <polygon class="cls-1" points="0 1099.78 511 1096.59 511 726.18 0 723 0 1099.78"/>
  <g>
    <path class="cls-1" d="m807.72,753.99s-30.92-54.86-11.73-166.59c1.4-8.13,4.16-12.08,5.87-14.08,5.05-5.93,9.64-5.07,12.9-9.39,7.49-9.89-4.09-30.98-5.87-30.5-1.63.43,5.75,18.61-2.35,25.81-3.79,3.37-6.88.69-14.08,4.69-8.26,4.59-9.88,11.26-14.08,10.56-3.28-.55-3.13-4.77-8.21-7.04-4.31-1.93-9.18-1.03-9.39,0-.26,1.34,7.58,1.65,10.56,7.04,2.52,4.56,1.32,12.36-3.52,15.25-6.19,3.7-14.52-2.92-15.25-3.52-9.38-7.66-8.1-21.21-10.56-21.12-1.79.07-4.32,7.3-2.35,14.08,2.02,6.93,7.98,10.74,9.39,11.73,12.53,8.86,18.06,45.8,10.56,84.47-11.47,59.11-43.59,68.6-35.2,98.55,5.92,21.13,27.31,40.27,50.45,41.06,18.92.65,40.49-10.92,44.58-26.98,3.01-11.81-4.62-21.4-11.73-34.02Z"/>
    <path class="cls-1" d="m780.52,551.13c-5.9,5.7-.99,13.11-6.47,18.11-7.54,6.89-19.74-4.48-31.05,2.59-7.32,4.58-7.45,12.64-15.52,14.23-.37.07-4.82.89-9.05-1.29-9.48-4.89-13.52-22.59-7.76-33.63,6.12-11.73,18.16-6.08,34.93-19.4,16.95-13.47,13.31-26.13,27.16-31.05,12.52-4.44,18.13,4.96,33.63,0,11.99-3.84,12.01-10.54,23.28-12.94,10.62-2.26,25.41.54,29.75,9.05,4.96,9.71-7.66,19.05-2.59,31.05,4.02,9.51,15.21,11.35,14.23,15.52-1.13,4.8-15.63,1.01-23.28,10.35-4.34,5.29-2.93,10.47-7.76,12.94-4.2,2.14-9.16.22-12.94-1.29-11.5-4.62-11.45-11.18-20.7-15.52-8.04-3.77-19.97-4.41-25.87,1.29Z"/>
  </g>
</svg>