<?xml version="1.0" encoding="UTF-8"?>
<svg id="Frame2" xmlns="http://www.w3.org/2000/svg" viewBox="0 0 1920 1080">
  <defs>
    <style>
      .cls-1 {
        fill: #549c40;
      }
    </style>
  </defs>
  <g>
    <path class="cls-1" d="m531.71,623.5c5.26,12.4,4.54,40.01,3.1,95.21-1.45,55.86-5.26,81.25,8.69,99.12,4.78,6.13,9.67,8.82,19.24,21.85,8.88,12.08,20.6,31.44,18,35.12-4.79,6.76-53.18-46.69-65.16-33.56-6.52,7.15,2.38,28.19-4.34,33.56-7.1,5.67-18.66-16.46-38.48-16.39-16.95.06-25.13,16.31-29.17,12.49-7.36-6.97,24.1-56.93,34.75-125.65,5.25-33.9,10.59-61.54,1.24-91.7-11.23-36.23-37.31-58.64-34.13-63.61,2.86-4.48,22.85,15.64,28.55,9.37,10.36-11.4-37.78-97.47-31.65-103.02,2.53-2.29,13.37,9.98,14.89,11.71,9.63,10.91,12.44,20.3,14.27,19.51,4.27-1.84-7.19-54.47-3.1-56.19,2.37-1,5.93,16.9,13.65,17.95,12.58,1.7,23.85-42.93,29.79-40.58,2.66,1.05,3.15,11.07,1.86,19.51-3.04,19.97-15.13,25.29-24.2,44.49-1.38,2.92-10.54,22.3-8.69,41.36,3.15,32.46,35.14,32.31,50.89,69.46Z"/>
    <path class="cls-1" d="m586.08,460.57c0-3.63-.64-6.06-.94-7.68-1.27-6.92,1.4-10.87,2.14-17,1.35-11.18-4.74-20.96-6.64-24.01-5.55-8.91-9.09-6.16-18.11-16.58-8.82-10.19-7.67-15.41-14.49-18.65-4.76-2.26-12.45-3.1-18.11,1.04-4.67,3.41-5.85,8.66-9.05,8.29-2.62-.3-2.96-3.93-6.34-6.22-4.37-2.97-9.46-.75-12.68,0-16.49,3.83-25.78-21.35-42.55-17.61-5.51,1.23-6.62,4.42-17.2,7.25-5.28,1.41-9.73,1.89-12.68,2.07-2.31,3.93-5.45,10.23-7.24,18.65-1.44,6.78-.67,8.68-2.36,11.88-4.43,8.4-13.65,2.72-23.9,9.88-10.14,7.08-17,23.74-21.73,35.22-.65,1.57-1.84,4.58-4.53,7.25-5.6,5.57-12.76,4.81-16.3,5.18-13.17,1.37-28.76,23.91-28.97,46.62-.27,29.57,25.61,51.06,45.27,51.8,2.69.1,7.7.29,13.44-2.32,15.14-6.89,18.53-25.62,31.59-26,2.43-.07,2,.59,3.86.35,12.29-1.58,16.09-28.54,24.44-27.97,1.89.13,2.29,1.55,7.49,2.98,3.43.94,6.21,1.16,6.99,1.16,13.5,0,24.44-12.52,24.44-27.97,0-3.23-2.09-5.54-.91-7.57,1.83-3.14,8.38-2.18,10.05-1.93,3.34.49,4.14,1.5,7.16,1.22,1.32-.12,2.36-.42,4.76-.53,3.45-.16,4.08.34,4.29.53.73.66,1.48,2.23.72,6.76-1.57,9.39-6.35,12.09-8.69,21.23-.45,1.76-1.09,4.66-1.09,8.27,0,15.45,10.94,27.97,24.44,27.97,2.7,0,2.47-.8,5.4-.69,7.5.28,10.45,5.59,18.74,8.45.26.09,4.82,1.56,9.36,1.56,18,0,32.59-16.7,32.59-37.3,0-.29-.48-3.85-1.43-10.97-2.57-19.1-3.32-21.83-2.28-26.67.31-1.44,1-4.12,1-7.94Z"/>
    <path class="cls-1" d="m448.46,588.86c0-15.45-10.94-27.97-24.44-27.97-5.14,0-9.9,1.82-13.83,4.91-10.76,2.93-18.76,14-18.76,27.2,0,10.11,4.69,18.97,11.71,23.88,2.81,11.91,12.31,20.67,23.6,20.67,13.5,0,24.44-12.52,24.44-27.97,0-5.19-1.24-10.04-3.39-14.21.44-2.09.67-4.27.67-6.51Z"/>
  </g>
  <g>
    <path class="cls-1" d="m1381.55,615.96c-6.19,14.59-5.34,47.07-3.65,112.03,1.71,65.73,6.19,95.6-10.22,116.62-5.63,7.21-11.37,10.38-22.64,25.71-10.44,14.22-24.24,36.99-21.18,41.32,5.63,7.96,62.57-54.93,76.67-39.49,7.68,8.41-2.8,33.17,5.11,39.49,8.35,6.67,21.96-19.37,45.27-19.28,19.94.07,29.57,19.19,34.32,14.69,8.65-8.2-28.36-66.98-40.89-147.84-6.18-39.89-12.46-72.41-1.46-107.9,13.22-42.63,43.9-69,40.16-74.84-3.37-5.27-26.88,18.4-33.59,11.02-12.19-13.41,44.45-114.68,37.24-121.21-2.98-2.7-15.73,11.75-17.52,13.77-11.34,12.83-14.64,23.89-16.79,22.96-5.02-2.17,8.45-64.08,3.65-66.12-2.79-1.18-6.97,19.89-16.06,21.12-14.8,2-28.06-50.51-35.05-47.75-3.13,1.24-3.7,13.03-2.19,22.96,3.58,23.49,17.81,29.75,28.48,52.34,1.62,3.43,12.4,26.24,10.22,48.67-3.7,38.19-41.35,38.02-59.87,81.73Z"/>
    <path class="cls-1" d="m1317.57,424.25c0-4.27.75-7.13,1.1-9.04,1.49-8.14-1.65-12.79-2.52-20.01-1.59-13.15,5.58-24.66,7.81-28.24,6.52-10.48,10.7-7.24,21.31-19.5,10.37-11.99,9.03-18.14,17.04-21.94,5.6-2.66,14.64-3.65,21.31,1.22,5.49,4.01,6.88,10.19,10.65,9.75,3.08-.35,3.49-4.62,7.46-7.31,5.14-3.49,11.13-.88,14.91,0,19.4,4.5,30.33-25.13,50.07-20.72,6.48,1.45,7.79,5.2,20.24,8.53,6.21,1.66,11.45,2.22,14.91,2.44,2.72,4.62,6.42,12.04,8.52,21.94,1.7,7.98.79,10.22,2.78,13.98,5.21,9.88,16.06,3.21,28.12,11.62,11.93,8.33,20,27.94,25.57,41.45.76,1.85,2.16,5.39,5.33,8.53,6.58,6.55,15.02,5.66,19.17,6.09,15.5,1.61,33.84,28.13,34.09,54.85.32,34.79-30.13,60.08-53.26,60.95-3.16.12-9.06.34-15.82-2.73-17.81-8.11-21.8-30.15-37.17-30.59-2.86-.08-2.35.69-4.54.41-14.47-1.86-18.93-33.58-28.76-32.91-2.23.15-2.7,1.83-8.82,3.51-4.04,1.11-7.3,1.37-8.23,1.37-15.88,0-28.76-14.74-28.76-32.91,0-3.8,2.46-6.52,1.07-8.91-2.15-3.7-9.86-2.56-11.82-2.27-3.93.58-4.87,1.76-8.42,1.43-1.55-.14-2.78-.5-5.6-.63-4.06-.18-4.8.4-5.05.63-.86.78-1.74,2.63-.85,7.96,1.85,11.05,7.47,14.22,10.23,24.98.53,2.07,1.28,5.48,1.28,9.73,0,18.18-12.88,32.91-28.76,32.91-3.17,0-2.9-.94-6.35-.81-8.82.33-12.3,6.57-22.05,9.94-.3.1-5.67,1.84-11.02,1.84-21.18,0-38.35-19.65-38.35-43.88,0-.34.56-4.53,1.69-12.91,3.03-22.47,3.91-25.69,2.68-31.38-.36-1.69-1.18-4.85-1.18-9.34Z"/>
    <path class="cls-1" d="m1479.5,575.19c0-18.18,12.88-32.91,28.76-32.91,6.04,0,11.65,2.14,16.28,5.78,12.66,3.45,22.07,16.47,22.07,32.01,0,11.9-5.52,22.32-13.78,28.1-3.3,14.01-14.48,24.32-27.76,24.32-15.88,0-28.76-14.74-28.76-32.91,0-6.1,1.46-11.82,3.99-16.72-.51-2.46-.79-5.02-.79-7.66Z"/>
  </g>
  <path class="cls-1" d="m402,780c1.94,8.08,7.85,11.57,12,16,17.25,18.41,13.82,63.54-4,86-14.23,17.93-30.17,12-135,18-64.48,3.69-85.38,7.47-106-9-15.3-12.22-30.84-35.92-26-56,3.42-14.21,13.99-13.91,20-33,6.39-20.3-1.41-33.81,8-41,3.16-2.41,9.11-3.28,21-5,12.67-1.84,16.85-.78,19-4,3.77-5.64-5.85-13.69-2-22,2.33-5.03,8.43-7.62,13-8,8.77-.73,11.02,6.76,19,8,14.07,2.18,19.18-19.24,37-21,12.93-1.28,14.91,9.54,32,10,16.19.44,20.14-9.12,31-6,12.62,3.62,10.09,17.34,24,26,18.36,11.43,40.07-1.67,45,7,4.3,7.57-11.72,18.51-8,34Z"/>
  <path class="cls-1" d="m1045,769c3.69,14.09,14.64,15.66,23,28,13.17,19.44,10.8,52.2-2,70-13.94,19.39-34.54,12.25-135,18-64.48,3.69-85.38,7.47-106-9-21.1-16.86-25.24-51.02-26-56-2.4-15.8-.43-28.06,1-37,1.78-11.09,2.76-16.7,7-20,9.97-7.75,23.34,5.38,35-2,5.59-3.54,8.4-11.36,14-27,2.98-8.32,3.84-13.35,9-19,2.23-2.44,6.65-7.47,13-8,9.17-.76,13.39,9.82,19,8,4.69-1.52,2.71-9.07,9-16,5.34-5.89,14.02-8.43,21-8,12.75.78,13.75,11.12,27,12,8.1.54,10.97-3.11,20-1,3.76.88,8.72,2.03,12,6,7.15,8.64-.42,22.43,4,25,3.47,2.02,8.68-5.86,19-10,12.8-5.14,31.94-1.18,38,9,6.34,10.65-6.44,20.05-2,37Z"/>
</svg>