<?xml version="1.0" encoding="UTF-8"?>
<svg id="Frame1" xmlns="http://www.w3.org/2000/svg" viewBox="0 0 1920 1080">
  <defs>
    <style>
      .cls-1 {
        fill: #6ec256;
      }
    </style>
  </defs>
  <path class="cls-1" d="m546.19,836.29c-7.03-13.64,5.76-19.44-1.7-28.58-9.37-11.49-32.34-5.75-43.39-17.86-9.3-10.2,1.67-20.11-7.66-25.6-10.25-6.03-25.47,4.76-44.24-1.19-12.99-4.12-10.88-10.94-24.67-14.89-9.22-2.64-12.59-.29-35.73.6-30.99,1.18-35.89-2.61-45.94,1.79-12.41,5.43-8.16,12.63-21.27,18.46-15.12,6.72-26.77-.19-35.73,5.95-9.91,6.8,1.27,17.37-8.51,30.96-6.13,8.52-14.75,10.24-21.27,14.89-24.84,17.69-14.39,74.32,31.48,98.84,17.37,9.29,23.38,5.17,137.39,8.93,57.1,1.88,113.49,4.82,121.22-9.53,3.02-5.61-3.18-10.55,2.55-19.65,5.81-9.22,15.2-8.95,20.42-17.86,5.35-9.15.81-18.58-.85-22.03-6.06-12.59-16.36-12.06-22.12-23.22Z"/>
  <path class="cls-1" d="m1920,866.4v263.82H385.17v-263.82c64.96-8.36,163.16-18.64,284.7-22.03,144.51-4.04,196.01,5.19,369,8.93,218.45,4.71,244.68-7.68,461.24-5.96,47.57.38,106.45,1.46,174.96,4.16,25.38,1.01,52.06,2.23,79.98,3.72,51.02,2.73,106.18,6.35,164.95,11.18Z"/>
  <path class="cls-1" d="m0,1130h385v-264c-17.8-6.62-45.84-15.37-81-19-60.12-6.2-94.65,7.39-172,15-26.14,2.57-84.56,5.18-132,4v264Z"/>
  <g>
    <path class="cls-1" d="m1281,720c-9.04,60.3,17.58,114.54,29,135,19.1,34.22,32.11,39.21,29,52-9.03,37.11-134.57,60.88-167,18-31.93-42.23,42.42-136.7,30-216-3.65-23.32-16.15-54.28-17-82-.15-4.77-.14-15.76-7-26-6.34-9.47-15.64-13.95-15-15,.57-.93,8.79,1.18,16,7,13.86,11.19,17.5,30.88,19,39,1.5,8.13,1.25,12.8,5,20,.58,1.12,7.42,14.01,13,13,4.73-.85,4.61-11.54,9-30,5.99-25.2,10.56-23.91,11-35,1.14-28.39-28.22-49.93-25-53,1.47-1.4,8.25,2.4,13,7,8.91,8.63,9.88,19.31,13,19,2.82-.28,3.6-9.15,5-9,1.2.13,1.2,6.68,2,15,.91,9.47,2.14,22.33,6,23,1.3.23,2.5-1.01,5-4,6.37-7.62,9.56-11.43,12-16,7.77-14.52,31.38-26.04,34-23,4.41,5.11-33.46,30.44-27,56,3.27,12.91,17.34,23.89,30,28,3.59,1.16,8.59,2.81,15,2,9.33-1.18,14.49-6.62,29-19,12.5-10.66,22.56-19.26,24-18,2.34,2.04-20.73,27.87-17,32,5.03,5.57,53.98-33.53,56-31,1.35,1.69-15.74,24.94-45,38-29.03,12.96-43.55,4.07-61,17-17.55,13.01-20.91,35.38-24,56Z"/>
    <path class="cls-1" d="m1355,561c-18.24-.45-20.23,18.99-42,26-17.59,5.66-35.35-.89-60-10-6.32-2.33-10.53-4.3-38-15-13.67-5.33-20.7-7.97-30-7-12.25,1.28-21.15,7.84-24,10-15.19,11.48-16.49,25.47-24,25-4.79-.3-8.76-6.27-10-11-2.14-8.16,4.14-11.49,8-26,3.8-14.25-.32-18.33,5-26,5.47-7.88,10.66-5.31,15-12,6.86-10.57-5.62-24.17,2-33,3.05-3.54,7-4.51,13-6,16.35-4.05,22.49,3.15,33,0,12.9-3.86,10.48-16.75,24-25,12.34-7.53,19.47.08,45-1,34.1-1.45,43.71-15.98,59-8,12.78,6.67,7.43,17.53,21,28,22.26,17.17,51.02-.95,63,15,5.3,7.06,6.34,18.24,2,23-5.19,5.68-15.41-.65-23,6-4.88,4.27-6.65,12.13-5,18,1.88,6.71,7.07,6.63,14,16,2.52,3.4,10.08,13.62,7,19-3.33,5.83-17.73,3.5-27,2-17.61-2.85-18.96-7.78-28-8Z"/>
    <path class="cls-1" d="m1326.17,603.37c-3.02,6.35,4.5,17.25,13.28,18.51,7.75,1.11,10.88-6.09,22.57-7.62,9.05-1.18,13.66,2.28,22.57,4.36,26.04,6.05,58.22-6.93,58.42-15.24.09-4.05-7.4-7.38-7.97-7.62-6.53-2.82-10.8-.12-17.26-1.09-13.27-2-12.07-15.98-25.22-19.6-11.41-3.14-24.84,3.93-31.86,7.62-8.3,4.36-7.86,6.53-18.59,11.98-10.12,5.14-14.21,5.1-15.93,8.71Z"/>
    <path class="cls-1" d="m1208,599c-17.55,6.4-26.04-3.43-36,3-9.06,5.85-4.65,15.66-16,25-.56.46-13.32,10.73-22,6-7.91-4.31-9.55-19.5-4-28,4.98-7.63,12.42-4.77,21-14,6.88-7.4,3.86-11.13,10-18,9.64-10.77,29.02-14.94,38-8,5.01,3.87,3.17,8.4,10,14,6.93,5.68,13.4,4.77,14,8,.7,3.75-7.23,9.17-15,12Z"/>
  </g>
  <path class="cls-1" d="m1284.45,865c4.79-9.65,2.22-23.78-2.73-32-6.56-10.88-16.28-9.7-21.82-22-4.59-10.19-.47-16.67-5.45-21-6.11-5.32-17.59-.14-24.55,3-13.52,6.1-13.78,11.35-20.91,14-22.88,8.51-45.38-36.14-67.73-28-10.69,3.89-10.59,16.27-23.18,18-12.05,1.65-17.23-8.4-26.37-5-10.49,3.9-7.71,18.65-20,26-10.58,6.33-17.88-1.48-25.46,5-8.05,6.89-9.56,24.06-4.55,35.5,6.34,14.47,23.01,19.58,49.09,23.5,43.2,6.49,78.96,4.68,94.16,3.5,1.48-.11,2.93-.24,5.85-.5,83.7-7.33,90.69-14.05,93.64-20Z"/>
</svg>