<?xml version="1.0" encoding="UTF-8"?>
<svg id="Layer_2" data-name="Layer 2" xmlns="http://www.w3.org/2000/svg" xmlns:xlink="http://www.w3.org/1999/xlink" viewBox="0 0 39.58 39.36">
  <defs>
    <style>
      .cls-1 {
        fill: url(#radial-gradient);
      }
    </style>
    <radialGradient id="radial-gradient" cx="19.79" cy="19.68" fx="19.79" fy="19.68" r="19.74" gradientUnits="userSpaceOnUse">
      <stop offset="0" stop-color="#ffd1fa"/>
      <stop offset="1" stop-color="#fff"/>
    </radialGradient>
  </defs>
  <g id="Background">
    <path class="cls-1" d="m39.55,20.24c.4,4.38-2.24,9.25-5.25,9.63-3.02.38-4.48-3.99-7-3.5-3.55.69-2.17,9.65-7,12.26-4.26,2.29-11.91-1.13-12.65-4.98-.7-3.62,4.96-6.36,3.9-9.03-1.12-2.84-7.9-.65-10.51-4.38-1.98-2.84-.91-8.19,1.75-9.63,3.47-1.88,8.56,3.46,10.51,1.75,1.9-1.67-2.44-7.28,0-10.51C14.96-.37,18.77-.03,20.28.1c3.49.31,8.32,2.25,8.75,5.25.46,3.17-4.25,5.75-3.5,7,.72,1.2,4.81-1.61,8.75,0,3.05,1.25,4.97,4.72,5.25,7.88Z"/>
  </g>
</svg>