<?xml version="1.0" encoding="UTF-8"?>
<svg id="Layer_2" data-name="Layer 2" xmlns="http://www.w3.org/2000/svg" xmlns:xlink="http://www.w3.org/1999/xlink" viewBox="0 0 145.29 278.17">
  <defs>
    <style>
      .cls-1 {
        fill: #dbd1c1;
      }

      .cls-2 {
        fill: url(#radial-gradient-10);
      }

      .cls-3 {
        fill: url(#radial-gradient-17);
      }

      .cls-4 {
        fill: url(#radial-gradient-11);
      }

      .cls-5 {
        fill: url(#radial-gradient-16);
      }

      .cls-6 {
        fill: url(#radial-gradient-15);
      }

      .cls-7 {
        fill: url(#radial-gradient-12);
      }

      .cls-8 {
        fill: url(#radial-gradient-14);
      }

      .cls-9 {
        fill: url(#radial-gradient-13);
      }

      .cls-10 {
        fill: url(#radial-gradient-6);
      }

      .cls-11 {
        fill: url(#radial-gradient-5);
      }

      .cls-12 {
        fill: url(#radial-gradient-3);
      }

      .cls-13 {
        fill: url(#radial-gradient-4);
      }

      .cls-14 {
        fill: url(#radial-gradient-9);
      }

      .cls-15 {
        fill: url(#radial-gradient-8);
      }

      .cls-16 {
        fill: url(#radial-gradient-7);
      }

      .cls-17 {
        fill: url(#radial-gradient-2);
      }

      .cls-18 {
        fill: url(#radial-gradient);
      }
    </style>
    <radialGradient id="radial-gradient" cx="70.66" cy="54.91" fx="70.66" fy="54.91" r="9.76" gradientTransform="translate(38.73 -29.75) rotate(52.11)" gradientUnits="userSpaceOnUse">
      <stop offset="0" stop-color="#ffd1fa"/>
      <stop offset=".15" stop-color="#ffdffb"/>
      <stop offset=".41" stop-color="#fff1fd"/>
      <stop offset=".68" stop-color="#fffbfe"/>
      <stop offset="1" stop-color="#fff"/>
    </radialGradient>
    <radialGradient id="radial-gradient-2" cx="85.29" cy="57.79" fx="85.29" fy="57.79" r="15.25" gradientUnits="userSpaceOnUse">
      <stop offset="0" stop-color="#ffd1fa"/>
      <stop offset=".28" stop-color="#ffd6fa"/>
      <stop offset=".62" stop-color="#ffe5fc"/>
      <stop offset="1" stop-color="#fff"/>
    </radialGradient>
    <radialGradient id="radial-gradient-3" cx="53.74" cy="27.81" fx="53.74" fy="27.81" r="9.76" gradientTransform="translate(38.73 -29.75) rotate(52.11)" gradientUnits="userSpaceOnUse">
      <stop offset="0" stop-color="#ffd1fa"/>
      <stop offset="1" stop-color="#fff"/>
    </radialGradient>
    <radialGradient id="radial-gradient-4" cx="100.68" cy="94.02" fx="100.68" fy="94.02" r="13.74" xlink:href="#radial-gradient-3"/>
    <radialGradient id="radial-gradient-5" cx="90.59" cy="98.84" fx="90.59" fy="98.84" r="13.74" xlink:href="#radial-gradient-3"/>
    <radialGradient id="radial-gradient-6" cx="31.29" cy="47.79" fx="31.29" fy="47.79" r="15.25" xlink:href="#radial-gradient-2"/>
    <radialGradient id="radial-gradient-7" cx="19.79" cy="34.79" fx="19.79" fy="34.79" r="19.74" gradientTransform="matrix(1, 0, 0, 1, 0, 0)" xlink:href="#radial-gradient-3"/>
    <radialGradient id="radial-gradient-8" cx="62.79" cy="99.82" fx="62.79" fy="99.82" r="14.75" gradientTransform="matrix(1, 0, 0, 1, 0, 0)" xlink:href="#radial-gradient-3"/>
    <radialGradient id="radial-gradient-9" cx="111.79" cy="149.82" fx="111.79" fy="149.82" r="14.75" gradientTransform="translate(138.68 -35.17) rotate(45)" xlink:href="#radial-gradient-3"/>
    <radialGradient id="radial-gradient-10" cx="52.12" cy="58.16" fx="52.12" fy="58.16" r="12.36" gradientTransform="translate(138.68 -35.17) rotate(45)" xlink:href="#radial-gradient-3"/>
    <radialGradient id="radial-gradient-11" cx="76.87" cy="105.52" fx="76.87" fy="105.52" r="9.54" gradientTransform="translate(138.68 -35.17) rotate(45)" xlink:href="#radial-gradient-3"/>
    <radialGradient id="radial-gradient-12" cx="71.73" cy="97.94" fx="71.73" fy="97.94" r="13.21" gradientTransform="translate(179.08 -22.01) rotate(65.55)" xlink:href="#radial-gradient-3"/>
    <radialGradient id="radial-gradient-13" cx="47.25" cy="21.49" fx="47.25" fy="21.49" r="9.76" xlink:href="#radial-gradient-3"/>
    <radialGradient id="radial-gradient-14" cx="79.79" cy="49.74" fx="79.79" fy="49.74" r="9.76" gradientTransform="matrix(1, 0, 0, 1, 0, 0)" xlink:href="#radial-gradient-3"/>
    <radialGradient id="radial-gradient-15" cx="46.65" cy="11.59" fx="46.65" fy="11.59" r="11.62" gradientTransform="matrix(1, 0, 0, 1, 0, 0)" xlink:href="#radial-gradient-3"/>
    <radialGradient id="radial-gradient-16" cx="114.65" cy="24.59" fx="114.65" fy="24.59" r="11.62" gradientTransform="matrix(1, 0, 0, 1, 0, 0)" xlink:href="#radial-gradient-3"/>
    <radialGradient id="radial-gradient-17" cx="74.29" cy="39.79" fx="74.29" fy="39.79" r="15.25" gradientUnits="userSpaceOnUse">
      <stop offset="0" stop-color="#ffd1fa"/>
      <stop offset=".16" stop-color="#ffe0fb"/>
      <stop offset=".41" stop-color="#fff1fd"/>
      <stop offset=".67" stop-color="#fffbfe"/>
      <stop offset="1" stop-color="#fff"/>
    </radialGradient>
  </defs>
  <g id="Background">
    <g>
      <path class="cls-1" d="m85.58,135.17c13.87,36.97,6.82,65.81,10,66,3.57.21,15.12-36.07,9.29-78.01-6.83-49.18-34.43-83.76-32.29-84.99,1.26-.72,10.75,11.26,19,27,14,26.69,15.01,46.21,18,46,6.54-.46,4.9-93.96,7-94,.82-.01,1.88,14.34,2,16,1.23,16.72.71,29.89,2,30,1.1.1.85-9.57,8-17,3.17-3.29,7.34-5.68,8-5,.77.79-4.11,4.98-8,12-4.38,7.91-5.32,17.05-7,35-.52,5.59-.79,8.39-1,13-1.5,32.52-27.13,177.92-33,177-3.57-.56-3.52-55.85-7-104-.31-4.34-.95-11.93-5.57-19.8-6.14-10.45-14.14-12.58-27.43-22.2-16.02-11.59-28.5-25.94-27-28,2.33-3.19,37.1,24.48,44,18,10.05-9.44-45.23-85.76-42-88,1.56-1.08,13.49,17.48,20,15,8.82-3.36.39-42.56,3-43,1.57-.27,7.68,13.35,8,30,.21,10.94-2.23,15.64,0,26,1.8,8.4,5.3,14.12,7,17,0,0,10.93,18.51,25,56Z"/>
      <path class="cls-18" d="m44.58,67.62c-1.59,1.48-4.29,1.93-5.36.88-1.07-1.06.2-2.96-.76-3.8-1.35-1.18-4.43,2.09-6.91.99-2.19-.97-3.18-4.99-1.9-6.45,1.2-1.38,3.99,0,4.71-1.22.77-1.3-2.15-3.28-1.48-5.43.51-1.64,2.92-2.84,4.29-2.24,1.79.78,1.25,4.39,2.51,4.63,1.23.24,2.1-3.17,4.1-3.19,1.38-.02,2.4,1.57,2.81,2.2.94,1.46,1.65,3.93.61,5.01-1.1,1.14-3.54.09-3.8.76-.25.65,2.09,1.39,2.66,3.42.44,1.57-.33,3.37-1.48,4.45Z"/>
      <path class="cls-17" d="m100.55,58.22c.31,3.38-1.73,7.15-4.06,7.44-2.33.3-3.46-3.08-5.41-2.71-2.75.53-1.68,7.46-5.41,9.47-3.29,1.77-9.2-.88-9.78-3.85-.54-2.8,3.83-4.92,3.01-6.98-.87-2.19-6.1-.5-8.12-3.38-1.53-2.19-.7-6.33,1.35-7.44,2.68-1.45,6.62,2.67,8.12,1.35,1.47-1.29-1.89-5.62,0-8.12,1.3-1.71,4.24-1.46,5.41-1.35,2.7.24,6.43,1.74,6.76,4.06.35,2.45-3.29,4.45-2.71,5.41.56.93,3.72-1.25,6.76,0,2.36.96,3.84,3.65,4.06,6.09Z"/>
      <path class="cls-12" d="m55.58,37.62c-1.59,1.48-4.29,1.93-5.36.88-1.07-1.06.2-2.96-.76-3.8-1.35-1.18-4.43,2.09-6.91.99-2.19-.97-3.18-4.99-1.9-6.45,1.2-1.38,3.99,0,4.71-1.22.77-1.3-2.15-3.28-1.48-5.43.51-1.64,2.92-2.84,4.29-2.24,1.79.78,1.25,4.39,2.51,4.63,1.23.24,2.1-3.17,4.1-3.19,1.38-.02,2.4,1.57,2.81,2.2.94,1.46,1.65,3.93.61,5.01-1.1,1.14-3.54.09-3.8.76-.25.65,2.09,1.39,2.66,3.42.44,1.57-.33,3.37-1.48,4.45Z"/>
      <path class="cls-13" d="m34.5,118.54c-2.24,2.09-6.04,2.72-7.54,1.23-1.5-1.49.28-4.17-1.07-5.34-1.9-1.66-6.23,2.94-9.73,1.39-3.08-1.36-4.47-7.02-2.67-9.08,1.69-1.94,5.61,0,6.63-1.72,1.08-1.83-3.02-4.62-2.09-7.64.71-2.3,4.11-4,6.04-3.16,2.52,1.1,1.76,6.18,3.53,6.52,1.73.33,2.95-4.45,5.77-4.49,1.94-.03,3.38,2.21,3.96,3.1,1.33,2.05,2.32,5.53.86,7.05-1.55,1.61-4.98.12-5.34,1.07-.35.91,2.94,1.95,3.74,4.81.62,2.21-.47,4.75-2.08,6.25Z"/>
      <path class="cls-11" d="m24.5,113.54c-2.24,2.09-6.04,2.72-7.54,1.23-1.5-1.49.28-4.17-1.07-5.34-1.9-1.66-6.23,2.94-9.73,1.39-3.08-1.36-4.47-7.02-2.67-9.08,1.69-1.94,5.61,0,6.63-1.72,1.08-1.83-3.02-4.62-2.09-7.64.71-2.3,4.11-4,6.04-3.16,2.52,1.1,1.76,6.18,3.53,6.52,1.73.33,2.95-4.45,5.77-4.49,1.94-.03,3.38,2.21,3.96,3.1,1.33,2.05,2.32,5.53.86,7.05-1.55,1.61-4.98.12-5.34,1.07-.35.91,2.94,1.95,3.74,4.81.62,2.21-.47,4.75-2.08,6.25Z"/>
      <path class="cls-10" d="m46.55,48.22c.31,3.38-1.73,7.15-4.06,7.44-2.33.3-3.46-3.08-5.41-2.71-2.75.53-1.68,7.46-5.41,9.47-3.29,1.77-9.2-.88-9.78-3.85-.54-2.8,3.83-4.92,3.01-6.98-.87-2.19-6.1-.5-8.12-3.38-1.53-2.19-.7-6.33,1.35-7.44,2.68-1.45,6.62,2.67,8.12,1.35,1.47-1.29-1.89-5.62,0-8.12,1.3-1.71,4.24-1.46,5.41-1.35,2.7.24,6.43,1.74,6.76,4.06.35,2.45-3.29,4.45-2.71,5.41.56.93,3.72-1.25,6.76,0,2.36.96,3.84,3.65,4.06,6.09Z"/>
      <path class="cls-16" d="m39.55,35.35c.4,4.38-2.24,9.25-5.25,9.63-3.02.38-4.48-3.99-7-3.5-3.55.69-2.17,9.65-7,12.26-4.26,2.29-11.91-1.13-12.65-4.98-.7-3.62,4.96-6.36,3.9-9.03-1.12-2.84-7.9-.65-10.51-4.38-1.98-2.84-.91-8.19,1.75-9.63,3.47-1.88,8.56,3.46,10.51,1.75,1.9-1.67-2.44-7.28,0-10.51,1.68-2.22,5.49-1.88,7-1.75,3.49.31,8.32,2.25,8.75,5.25.46,3.17-4.25,5.75-3.5,7,.72,1.2,4.81-1.61,8.75,0,3.05,1.25,4.97,4.72,5.25,7.88Z"/>
      <path class="cls-15" d="m77.56,100.24c.3,3.27-1.68,6.91-3.93,7.2-2.25.29-3.35-2.98-5.23-2.62-2.66.51-1.62,7.22-5.23,9.16-3.18,1.71-8.9-.85-9.46-3.72-.53-2.71,3.7-4.76,2.91-6.75-.84-2.12-5.9-.48-7.85-3.27-1.48-2.12-.68-6.12,1.31-7.2,2.59-1.41,6.4,2.58,7.85,1.31,1.42-1.25-1.83-5.44,0-7.85,1.26-1.66,4.1-1.41,5.23-1.31,2.61.23,6.22,1.68,6.54,3.93.34,2.37-3.18,4.3-2.62,5.23.54.9,3.6-1.21,6.54,0,2.28.93,3.71,3.53,3.93,5.89Z"/>
      <path class="cls-14" d="m121.94,160.55c-2.11,2.52-6.07,3.7-7.87,2.31-1.8-1.39-.26-4.48-1.85-5.55-2.24-1.52-6.25,3.96-10.18,2.78-3.46-1.04-5.69-6.89-4.06-9.32,1.54-2.29,5.98-.74,6.83-2.71.9-2.09-3.83-4.52-3.24-7.87.45-2.55,3.84-4.81,6.01-4.16,2.83.84,2.7,6.35,4.63,6.48,1.89.12,2.56-5.14,5.55-5.55,2.06-.28,3.9,1.91,4.63,2.78,1.68,2.01,3.21,5.59,1.85,7.4-1.43,1.92-5.29.79-5.55,1.85-.25,1.02,3.4,1.69,4.63,4.63.95,2.27.13,5.12-1.39,6.94Z"/>
      <path class="cls-2" d="m142.91,51.81c-1.76,2.11-5.09,3.1-6.59,1.94-1.51-1.17-.22-3.75-1.55-4.65-1.88-1.27-5.24,3.32-8.53,2.33-2.9-.87-4.77-5.77-3.4-7.81,1.29-1.92,5.01-.62,5.73-2.27.76-1.75-3.21-3.78-2.71-6.59.38-2.14,3.22-4.03,5.04-3.49,2.37.7,2.26,5.32,3.88,5.43,1.58.1,2.14-4.31,4.65-4.65,1.73-.24,3.27,1.6,3.88,2.33,1.41,1.68,2.69,4.68,1.55,6.2-1.2,1.61-4.43.67-4.65,1.55-.21.85,2.85,1.42,3.88,3.88.8,1.91.11,4.29-1.16,5.82Z"/>
      <path class="cls-4" d="m124.99,100.74c-1.36,1.63-3.93,2.39-5.09,1.5-1.16-.9-.17-2.89-1.2-3.59-1.45-.98-4.04,2.56-6.58,1.8-2.24-.67-3.68-4.46-2.62-6.03,1-1.48,3.87-.48,4.42-1.75.59-1.35-2.48-2.92-2.09-5.09.29-1.65,2.49-3.11,3.89-2.69,1.83.54,1.75,4.11,2.99,4.19,1.22.08,1.65-3.32,3.59-3.59,1.33-.18,2.52,1.23,2.99,1.8,1.09,1.3,2.07,3.61,1.2,4.79-.93,1.24-3.42.51-3.59,1.2-.16.66,2.2,1.09,2.99,2.99.62,1.47.08,3.31-.9,4.49Z"/>
      <path class="cls-7" d="m124.74,96c-2.56,1.45-6.25,1.19-7.32-.53-1.07-1.73,1.19-3.83.19-5.24-1.4-1.98-6.48,1.35-9.41-.87-2.58-1.96-2.61-7.57-.47-9.09,2.01-1.43,5.25,1.26,6.58-.12,1.42-1.47-1.79-4.99-.24-7.61,1.18-2,4.73-2.82,6.35-1.6,2.11,1.59.27,6.17,1.84,6.88,1.55.7,3.76-3.5,6.4-2.91,1.82.41,2.67,2.82,3.01,3.78.78,2.21.93,5.69-.78,6.79-1.81,1.16-4.68-1-5.24-.19-.53.77,2.31,2.48,2.42,5.33.08,2.21-1.5,4.33-3.34,5.38Z"/>
      <path class="cls-9" d="m56.58,28.62c-1.59,1.48-4.29,1.93-5.36.88-1.07-1.06.2-2.96-.76-3.8-1.35-1.18-4.43,2.09-6.91.99-2.19-.97-3.18-4.99-1.9-6.45,1.2-1.38,3.99,0,4.71-1.22.77-1.3-2.15-3.28-1.48-5.43.51-1.64,2.92-2.84,4.29-2.24,1.79.78,1.25,4.39,2.51,4.63,1.23.24,2.1-3.17,4.1-3.19,1.38-.02,2.4,1.57,2.81,2.2.94,1.46,1.65,3.93.61,5.01-1.1,1.14-3.54.09-3.8.76-.25.65,2.09,1.39,2.66,3.42.44,1.57-.33,3.37-1.48,4.45Z"/>
      <path class="cls-8" d="m89.57,50.01c.2,2.17-1.11,4.58-2.6,4.76-1.49.19-2.22-1.97-3.47-1.73-1.76.34-1.07,4.78-3.47,6.06-2.11,1.13-5.89-.56-6.26-2.46-.35-1.79,2.45-3.15,1.93-4.47-.56-1.4-3.91-.32-5.2-2.17-.98-1.4-.45-4.05.87-4.76,1.72-.93,4.24,1.71,5.2.87.94-.83-1.21-3.6,0-5.2.83-1.1,2.72-.93,3.47-.87,1.73.15,4.12,1.11,4.33,2.6.23,1.57-2.1,2.85-1.73,3.47.36.59,2.38-.8,4.33,0,1.51.62,2.46,2.34,2.6,3.9Z"/>
      <path class="cls-6" d="m58.28,11.91c.23,2.58-1.32,5.44-3.09,5.67-1.78.23-2.64-2.35-4.12-2.06-2.09.4-1.28,5.68-4.12,7.22-2.51,1.35-7.01-.67-7.45-2.93-.41-2.13,2.92-3.75,2.3-5.31-.66-1.67-4.65-.38-6.18-2.58-1.17-1.67-.54-4.82,1.03-5.67,2.04-1.11,5.04,2.04,6.18,1.03,1.12-.98-1.44-4.29,0-6.18C43.81-.22,46.05-.02,46.94.06c2.06.18,4.9,1.33,5.15,3.09.27,1.87-2.5,3.39-2.06,4.12.42.71,2.83-.95,5.15,0,1.8.73,2.92,2.78,3.09,4.64Z"/>
      <path class="cls-5" d="m126.28,24.91c.23,2.58-1.32,5.44-3.09,5.67-1.78.23-2.64-2.35-4.12-2.06-2.09.4-1.28,5.68-4.12,7.22-2.51,1.35-7.01-.67-7.45-2.93-.41-2.13,2.92-3.75,2.3-5.31-.66-1.67-4.65-.38-6.18-2.58-1.17-1.67-.54-4.82,1.03-5.67,2.04-1.11,5.04,2.04,6.18,1.03,1.12-.98-1.44-4.29,0-6.18.99-1.31,3.23-1.11,4.12-1.03,2.06.18,4.9,1.33,5.15,3.09.27,1.87-2.5,3.39-2.06,4.12.42.71,2.83-.95,5.15,0,1.8.73,2.92,2.78,3.09,4.64Z"/>
      <path class="cls-3" d="m89.55,40.22c.31,3.38-1.73,7.15-4.06,7.44-2.33.3-3.46-3.08-5.41-2.71-2.75.53-1.68,7.46-5.41,9.47-3.29,1.77-9.2-.88-9.78-3.85-.54-2.8,3.83-4.92,3.01-6.98-.87-2.19-6.1-.5-8.12-3.38-1.53-2.19-.7-6.33,1.35-7.44,2.68-1.45,6.62,2.67,8.12,1.35,1.47-1.29-1.89-5.62,0-8.12,1.3-1.71,4.24-1.46,5.41-1.35,2.7.24,6.43,1.74,6.76,4.06.35,2.45-3.29,4.45-2.71,5.41.56.93,3.72-1.25,6.76,0,2.36.96,3.84,3.65,4.06,6.09Z"/>
    </g>
  </g>
</svg>