<?xml version="1.0" encoding="UTF-8"?>
<svg id="Frame4" xmlns="http://www.w3.org/2000/svg" xmlns:xlink="http://www.w3.org/1999/xlink" viewBox="0 0 1920 1080">
  <defs>
    <style>
      .cls-1 {
        fill: url(#linear-gradient);
      }

      .cls-2 {
        fill: #666262;
      }

      .cls-3 {
        fill: #2a4f20;
      }
    </style>
    <linearGradient id="linear-gradient" x1="839.84" y1="917.7" x2="1079.84" y2="917.7" gradientUnits="userSpaceOnUse">
      <stop offset="0" stop-color="#2a4f20"/>
      <stop offset="1" stop-color="#666262"/>
    </linearGradient>
  </defs>
  <path class="cls-3" d="m747.18,745.96s-2.11,18.66-15.48,31.29c-10.8,10.21-24.74,16.44-88.72,27.5-78.08,13.5-93.2,10.43-102.41,3.32-4.31-3.32-8.23-9.96-16.08-23.23-9.64-16.31-14.46-24.46-13.1-32.72,2.01-12.2,12.44-11.64,22.63-29.4,10.1-17.61,4.58-26.42,14.29-31.29,10.72-5.38,19.38,4.38,36.92.95,21.03-4.12,21.71-20.72,40.19-22.76,1.09-.12,2.86,0,6.37.12,23.71.88,27.06,5.26,39.77,5.07,17.64-.27,21.02-8.85,33.34-4.76,2.23.74,9.77,3.24,13.69,10.12,5.29,9.28-2.49,16.45,2.61,24.18,5.91,8.97,16.62,4.82,23.59,13.93,6.15,8.03,3.99,19.3,2.38,27.68Z"/>
  <path class="cls-3" d="m599.83,769.49c-3.6,12.92-21.82,16.36-28.35,17.6-14.96,2.83-31.36.83-99.43-22.58-83.07-28.58-96.78-38.73-102.98-49.17-2.9-4.88-4.03-12.27-6.31-27.03-2.79-18.14-4.19-27.21.58-33.23,7.06-8.9,17.18-3.16,34.65-12.44,17.32-9.2,15.5-19.16,27.17-18.2,12.87,1.06,17.4,13.37,36.23,19.47,22.57,7.31,30.14-5.85,49.32,1.86,13.05,5.24,11.42,12.08,31.21,27.11,25.33,19.24,40.9,17.84,49.23,30.48,6.35,9.64-2.14,11.32.4,31.3,2.42,19.03,11.06,24.87,8.28,34.84Z"/>
  <path class="cls-3" d="m962.75,746.09c0,16.64-2,328.86-2,345.5H389.14l2-370.78c189.49,29.58,288.17,30.49,343.56,25.28,11.72-1.1,50.93-5.24,105.14-5.66,4.74-.04,9.58-.05,14.54-.03,44.96.22,81.7,3.07,105.37,5.39,1.03.1,2.03.2,3,.3Z"/>
  <rect class="cls-2" x="959.75" y="745.47" width="961.25" height="346.13"/>
  <path class="cls-2" d="m1535.48,267.74c-.02,3.06-112.42,142.69-168.56,213.95,15.29-2.03,22.46-2.98,22.46-2.98,0,0,7.05,231.22,9.98,327.48h139.74c0-.06,0-.13,0-.19h132.38c2.93-96.27,9.98-327.47,9.98-327.48,0,0,7.16.95,22.46,2.98-56.15-71.25-112.29-142.51-168.44-213.76Z"/>
  <path class="cls-2" d="m1439.1,640.07h-18.84v-285.8c1.52.62,4.71,1.72,9.01,1.79,4.77.07,8.3-1.16,9.83-1.79v285.8Z"/>
  <polygon class="cls-3" points="0 1094.78 391 1091.59 391 721.18 0 718 0 1094.78"/>
  <path class="cls-1" d="m1079.84,745.47v349.53h-240v-354.56c4.74-.04,9.58-.05,14.54-.03,44.96.22,81.7,3.07,105.37,5.39v-.33h120.09Z"/>
</svg>