<?xml version="1.0" encoding="UTF-8"?>
<svg id="Frame6" xmlns="http://www.w3.org/2000/svg" xmlns:xlink="http://www.w3.org/1999/xlink" viewBox="0 0 1920 1080">
  <defs>
    <style>
      .cls-1 {
        fill: url(#linear-gradient);
      }

      .cls-2 {
        fill: #1a3014;
      }

      .cls-3 {
        fill: #2b2a2a;
      }

      .cls-4 {
        fill: #fff;
        filter: url(#drop-shadow-1);
        opacity: .72;
      }
    </style>
    <filter id="drop-shadow-1" filterUnits="userSpaceOnUse">
      <feOffset dx="0" dy="0"/>
      <feGaussianBlur result="blur" stdDeviation="17"/>
      <feFlood flood-color="#edeab7" flood-opacity=".75"/>
      <feComposite in2="blur" operator="in"/>
      <feComposite in="SourceGraphic"/>
    </filter>
    <linearGradient id="linear-gradient" x1="839.85" y1="891.22" x2="1079.85" y2="891.22" gradientUnits="userSpaceOnUse">
      <stop offset="0" stop-color="#1a3014"/>
      <stop offset="1" stop-color="#2b2a2a"/>
    </linearGradient>
  </defs>
  <path class="cls-3" d="m1243.93,766.76h-72.25c-8.25-50.88-7.83-88.95-5.64-115.13,3-35.97,9.9-56.13,9.03-94.19-.09-3.93-3.55-23.08-5.35-49.44-.37-5.43-.61-9.88-.74-12.75,3.9.58,9.52,1.36,16.31,2.14,6.28.72,15.8,1.81,22.14,2.01,8.05.25,20.08-.64,35.41-6.54-1.53,16.44-3.09,40.8-2.3,70.28,1.06,39.13,5.59,59.52,7.9,88.49,2.11,26.41,2.69,64.64-4.52,115.13Z"/>
  <path class="cls-3" d="m1106.8,724.48h-10.72v-225.67c1,.47,2.89,1.19,5.36,1.19,1.1,0,3.12-.14,5.36-1.19v225.67Z"/>
  <path class="cls-3" d="m1127.64,729.84h-10.72v-225.67c.99.47,2.64,1.09,4.76,1.19,2.77.13,4.89-.69,5.95-1.19v225.67Z"/>
  <rect class="cls-3" x="959.75" y="707.12" width="961.25" height="378.69"/>
  <path class="cls-2" d="m959.75,707.12v378.92H388.14v-378.92c116.32-13.71,247.43-20.74,390.6-14.58.24.01.49.02.73.03,20.43.88,40.57,2.01,60.38,3.37,41.35,2.82,81.34,6.62,119.9,11.17Z"/>
  <path class="cls-2" d="m673.95,444.12c-25.89,62.62-4.1,140.48,27.98,186.37,8.48,12.13,31.63,43.96,72.64,60.14,52.83,20.84,92.16-1.41,102.43,13.38,16.29,23.47-57.9,115.36-129,170-162.14,124.61-494.14,196.77-728,16C-264.95,669.74-257.17,187.52-19-21c207.66-181.8,589.49-154.7,665-16,25.76,47.32,57.47,184.12,14.25,243.54-7.14,9.81-26.34,33.63-23.82,61.92,2.01,22.58,18.75,26.44,19.65,52.4.78,22.51-11.39,31.4-4.76,43.47,7.7,14.02,27.55,8.26,36.32,20.84,10.22,14.65-5.35,38.76-13.69,58.95Z"/>
  <circle class="cls-4" cx="959.45" cy="253.88" r="35.43"/>
  <rect class="cls-2" y="784" width="415" height="302"/>
  <path class="cls-1" d="m1079.85,707.12v379.37h-240v-390.54c41.35,2.82,81.34,6.62,119.9,11.17h120.1Z"/>
</svg>