<?xml version="1.0" encoding="UTF-8"?>
<svg id="Frame3" xmlns="http://www.w3.org/2000/svg" xmlns:xlink="http://www.w3.org/1999/xlink" viewBox="0 0 1920 1080">
  <defs>
    <style>
      .cls-1 {
        fill: url(#linear-gradient);
      }

      .cls-2 {
        fill: #807b7b;
      }

      .cls-3 {
        fill: #3b6e2d;
      }
    </style>
    <linearGradient id="linear-gradient" x1="840" y1="922.31" x2="1080" y2="922.31" gradientUnits="userSpaceOnUse">
      <stop offset="0" stop-color="#3b6e2d"/>
      <stop offset="1" stop-color="#807b7b"/>
    </linearGradient>
  </defs>
  <g>
    <path class="cls-3" d="m654.6,526.2c6.55,16.93,5.66,54.61,3.87,129.97-1.81,76.26-6.56,110.91,10.83,135.3,5.97,8.37,12.05,12.04,23.99,29.83,11.07,16.49,25.69,42.92,22.44,47.94-5.97,9.23-66.3-63.73-81.24-45.81-8.13,9.76,2.97,38.48-5.42,45.81-8.85,7.74-23.27-22.47-47.97-22.37-21.13.08-31.34,22.26-36.37,17.05-9.17-9.51,30.05-77.71,43.33-171.52,6.55-46.28,13.2-84.01,1.55-125.18-14-49.46-46.51-80.05-42.56-86.83,3.57-6.11,28.48,21.35,35.59,12.78,12.92-15.56-47.1-133.05-39.46-140.63,3.15-3.13,16.67,13.63,18.57,15.98,12.01,14.89,15.51,27.71,17.8,26.63,5.32-2.51-8.96-74.35-3.87-76.71,2.96-1.37,7.39,23.08,17.02,24.5,15.68,2.32,29.74-58.6,37.14-55.4,3.31,1.43,3.92,15.12,2.32,26.63-3.79,27.26-18.87,34.52-30.18,60.73-1.72,3.98-13.14,30.45-10.83,56.46,3.92,44.31,43.82,44.11,63.45,94.82Z"/>
    <path class="cls-3" d="m713.88,320.79c-.24,7.46,4.56,14.21,5.36,15.32,4.23,5.93,7.39,5.1,11.31,10.85,3.76,5.52,1.97,7.94,5.36,17.24,4.42,12.14,9.21,12.82,8.93,18.52-.41,8.28-11.07,17.64-21.52,17.88-12.71.29-15.82-13.13-30.28-14.68-10.92-1.17-11.57,6.45-25.6,8.3-14.82,1.95-34.97-3.63-43.47-17.88-4.39-7.37-3.8-13.93-8.4-15.32-5.38-1.63-8.19,6.76-18.39,10.22-12.12,4.11-17.55-4.56-26.2,0-8.12,4.28-4.51,12.54-14.29,24.26-10.34,12.39-21.65,11.9-22.63,20.43-.78,6.82,6.11,10.29,4.17,15.96-1.91,5.57-8.68,3.53-13.69,10.22-4.84,6.45-1.33,12.05-5.36,19.15-3.91,6.89-11.38,8.96-18.23,10.85-18.38,5.09-24.71-3.3-41.31,1.28-13.15,3.63-13.12,9.98-20.24,9.58-22.22-1.26-49.19-64.57-30.91-95.77,7.02-11.98,16.17-11.48,20.79-25.54,5.92-18-6.06-28.04.6-44.05,5.14-12.38,13.38-8.97,24.41-24.26,13.28-18.4,6.6-30.61,17.27-39.59,12.15-10.22,21.68,4.89,47.63-1.28,22.56-5.36,36.43-21.78,54.36-17.88,5.25,1.14,10,3.36,10,3.36,6.45,3.33,10.36,8.19,18.88,14.28,1.73,1.23,10.6,8.48,20.79,11.74,14.24,4.55,17.2-2.84,34.1-.64,17.73,2.3,18.33,10.93,33.94,10.85,13.1-.07,17.07-6.17,25.6-2.55,7.49,3.17,14.87,12.31,14.29,21.07-.82,12.35-16.84,14.79-17.27,28.09Z"/>
    <path class="cls-3" d="m538.16,466.06c-1.25,2.64-.02,3.59-1.12,6.04-2.57,5.73-10.53,3.37-13.69,8.3-2.95,4.6-.26,13.25,4.34,18.08,4.32,4.53,11.26,6.35,16.47,4.28.86-.34,1.52-.8,2.04-1.35,3.87-4.13,2.29-9.18,4.21-14.18,3.53-9.23,16.82-8.44,17.01-14.48.07-2.06-1.41-4.21-2.98-5.11-3.09-1.77-6.03,1.65-8.93,0-2.67-1.52-1.39-5.1-3.97-6.96-3.48-2.52-10.98.32-13.37,5.39Z"/>
  </g>
  <path class="cls-3" d="m959.75,764v317H388.14v-317c167.92-17.36,266.42-9.22,326.3,2.38,16.21,3.14,62.66,12.95,125.56,12.05,2.38-.03,4.79-.07,7.22-.14,17.17-.46,33.19-1.68,47.85-3.31,26.4-2.94,48.39-7.25,64.68-10.98Z"/>
  <rect class="cls-2" x="959.75" y="764" width="961.25" height="316"/>
  <path class="cls-2" d="m1599.73,272.44c0-.16,0-.32,0-.47-.06.08-.12.16-.18.23-.12-.16-.24-.31-.35-.47,0,.32,0,.63,0,.95-53.41,71.02-106.82,142.03-160.23,213.05,14.6-2.03,21.44-2.98,21.44-2.98,0,0,6.73,231.22,9.53,327.48h133.38c0-.08,0-.16,0-.23h125.7c2.8-96.27,9.53-327.47,9.53-327.48,0,0,6.84.95,21.44,2.98-53.41-71.02-106.82-142.03-160.23-213.05Z"/>
  <path class="cls-2" d="m1521.14,639.35h-13.69v-285.8c1.11.62,3.42,1.72,6.55,1.79,3.46.07,6.03-1.16,7.15-1.79v285.8Z"/>
  <g>
    <rect class="cls-2" x="1012.15" y="595.49" width="9.76" height="205.42"/>
    <path class="cls-2" d="m1012.15,595.49h15.48c6.57,0,11.91,5.34,11.91,11.91h-27.39v-11.91h0Z"/>
  </g>
  <g>
    <rect class="cls-2" x="1258.65" y="595.49" width="9.76" height="205.42"/>
    <path class="cls-2" d="m1258.65,595.49h15.48c6.57,0,11.91,5.34,11.91,11.91h-27.39v-11.91h0Z"/>
  </g>
  <rect class="cls-3" y="764" width="415" height="317"/>
  <path class="cls-1" d="m1080,764v316.62h-240v-302.19c2.38-.03,4.79-.07,7.22-.14,17.17-.46,33.19-1.68,47.85-3.31,26.4-2.94,48.39-7.25,64.68-10.98h120.25Z"/>
</svg>