<?xml version="1.0" encoding="UTF-8"?>
<svg id="Layer_9" data-name="Layer 9" xmlns="http://www.w3.org/2000/svg" viewBox="0 0 1920 1080">
  <defs>
    <style>
      .cls-1 {
        fill: #fff5f5;
      }
    </style>
  </defs>
  <path class="cls-1" d="m549.36,571.38c-5.55,0-10.18,3.88-11.36,9.07-1.17-5.19-5.81-9.07-11.36-9.07-6.43,0-11.64,5.21-11.64,11.64,0,5.11,5.56,12.2,11.64,15.69,2.83,1.62,5.49,3.16,7.74,4.18,1.75.8,3.75.89,5.56.26,2.7-.94,5.97-2.55,9.41-4.44,5.71-3.14,11.64-10.33,11.64-15.69,0-6.43-5.21-11.64-11.64-11.64Z"/>
  <path class="cls-1" d="m687.39,623.38c-4.1,0-7.53,2.87-8.39,6.7-.87-3.84-4.29-6.7-8.39-6.7-4.75,0-8.61,3.85-8.61,8.61,0,3.78,4.11,9.02,8.61,11.59,2.09,1.2,4.06,2.33,5.72,3.09,1.3.59,2.77.66,4.11.19,1.99-.69,4.41-1.88,6.95-3.28,4.22-2.32,8.61-7.63,8.61-11.59,0-4.75-3.85-8.61-8.61-8.61Z"/>
  <path class="cls-1" d="m623.09,714.48c-6.15,0-11.29,4.3-12.59,10.06-1.3-5.76-6.44-10.06-12.59-10.06-7.13,0-12.91,5.78-12.91,12.91,0,5.66,6.17,13.53,12.91,17.39,3.13,1.79,6.09,3.5,8.58,4.63,1.94.88,4.15.99,6.17.29,2.99-1.04,6.62-2.82,10.43-4.92,6.33-3.48,12.91-11.45,12.91-17.39,0-7.13-5.78-12.91-12.91-12.91Z"/>
  <path class="cls-1" d="m729.42,372.97c-3.13,0-5.76,2.19-6.42,5.13-.66-2.93-3.28-5.13-6.42-5.13-3.63,0-6.58,2.95-6.58,6.58,0,2.89,3.14,6.9,6.58,8.87,1.6.91,3.11,1.79,4.37,2.36.99.45,2.12.5,3.14.15,1.53-.53,3.37-1.44,5.32-2.51,3.23-1.77,6.58-5.84,6.58-8.87,0-3.63-2.95-6.58-6.58-6.58Z"/>
  <path class="cls-1" d="m796.42,459.97c-3.13,0-5.76,2.19-6.42,5.13-.66-2.93-3.28-5.13-6.42-5.13-3.63,0-6.58,2.95-6.58,6.58,0,2.89,3.14,6.9,6.58,8.87,1.6.91,3.11,1.79,4.37,2.36.99.45,2.12.5,3.14.15,1.53-.53,3.37-1.44,5.32-2.51,3.23-1.77,6.58-5.84,6.58-8.87,0-3.63-2.95-6.58-6.58-6.58Z"/>
  <path class="cls-1" d="m673.12,299.08c-5.18,0-9.52,3.63-10.61,8.48-1.1-4.85-5.43-8.48-10.61-8.48-6.01,0-10.88,4.87-10.88,10.88,0,4.77,5.2,11.41,10.88,14.66,2.64,1.51,5.14,2.95,7.24,3.91,1.64.74,3.5.83,5.2.24,2.52-.88,5.58-2.38,8.79-4.15,5.33-2.93,10.88-9.65,10.88-14.66,0-6.01-4.87-10.88-10.88-10.88Z"/>
  <path class="cls-1" d="m742.66,208c-3.82,0-7.01,2.67-7.82,6.25-.81-3.58-4-6.25-7.82-6.25-4.43,0-8.02,3.59-8.02,8.02,0,3.52,3.83,8.4,8.02,10.8,1.95,1.11,3.78,2.18,5.33,2.88,1.21.55,2.58.61,3.83.18,1.86-.65,4.11-1.75,6.48-3.05,3.93-2.16,8.02-7.11,8.02-10.8,0-4.43-3.59-8.02-8.02-8.02Z"/>
  <path class="cls-1" d="m842.15,643.48c-3.74,0-6.86,2.61-7.65,6.11-.79-3.5-3.91-6.11-7.65-6.11-4.33,0-7.85,3.51-7.85,7.85,0,3.44,3.75,8.22,7.85,10.57,1.9,1.09,3.7,2.13,5.22,2.82,1.18.54,2.52.6,3.75.17,1.82-.63,4.02-1.72,6.34-2.99,3.85-2.11,7.85-6.96,7.85-10.57,0-4.33-3.51-7.85-7.85-7.85Z"/>
  <path class="cls-1" d="m917.95,597.97c-1.93,0-3.54,1.35-3.95,3.16-.41-1.81-2.02-3.16-3.95-3.16-2.24,0-4.05,1.81-4.05,4.05,0,1.78,1.94,4.24,4.05,5.46.98.56,1.91,1.1,2.69,1.45.61.28,1.3.31,1.94.09.94-.33,2.08-.89,3.27-1.54,1.98-1.09,4.05-3.59,4.05-5.46,0-2.24-1.81-4.05-4.05-4.05Z"/>
  <path class="cls-1" d="m801.95,355.97c-1.93,0-3.54,1.35-3.95,3.16-.41-1.81-2.02-3.16-3.95-3.16-2.24,0-4.05,1.81-4.05,4.05,0,1.78,1.94,4.24,4.05,5.46.98.56,1.91,1.1,2.69,1.45.61.28,1.3.31,1.94.09.94-.33,2.08-.89,3.27-1.54,1.98-1.09,4.05-3.59,4.05-5.46,0-2.24-1.81-4.05-4.05-4.05Z"/>
  <path class="cls-1" d="m445.95,668.97c-1.93,0-3.54,1.35-3.95,3.16-.41-1.81-2.02-3.16-3.95-3.16-2.24,0-4.05,1.81-4.05,4.05,0,1.78,1.94,4.24,4.05,5.46.98.56,1.91,1.1,2.69,1.45.61.28,1.3.31,1.94.09.94-.33,2.08-.89,3.27-1.54,1.98-1.09,4.05-3.59,4.05-5.46,0-2.24-1.81-4.05-4.05-4.05Z"/>
  <path class="cls-1" d="m1431.95,533.97c-1.93,0-3.54,1.35-3.95,3.16-.41-1.81-2.02-3.16-3.95-3.16-2.24,0-4.05,1.81-4.05,4.05,0,1.78,1.94,4.24,4.05,5.46.98.56,1.91,1.1,2.69,1.45.61.28,1.3.31,1.94.09.94-.33,2.08-.89,3.27-1.54,1.98-1.09,4.05-3.59,4.05-5.46,0-2.24-1.81-4.05-4.05-4.05Z"/>
  <path class="cls-1" d="m1243.95,289.97c-1.93,0-3.54,1.35-3.95,3.16-.41-1.81-2.02-3.16-3.95-3.16-2.24,0-4.05,1.81-4.05,4.05,0,1.78,1.94,4.24,4.05,5.46.98.56,1.91,1.1,2.69,1.45.61.28,1.3.31,1.94.09.94-.33,2.08-.89,3.27-1.54,1.98-1.09,4.05-3.59,4.05-5.46,0-2.24-1.81-4.05-4.05-4.05Z"/>
  <path class="cls-1" d="m751.95,690.97c-1.93,0-3.54,1.35-3.95,3.16-.41-1.81-2.02-3.16-3.95-3.16-2.24,0-4.05,1.81-4.05,4.05,0,1.78,1.94,4.24,4.05,5.46.98.56,1.91,1.1,2.69,1.45.61.28,1.3.31,1.94.09.94-.33,2.08-.89,3.27-1.54,1.98-1.09,4.05-3.59,4.05-5.46,0-2.24-1.81-4.05-4.05-4.05Z"/>
  <path class="cls-1" d="m1290.95,463.97c-1.93,0-3.54,1.35-3.95,3.16-.41-1.81-2.02-3.16-3.95-3.16-2.24,0-4.05,1.81-4.05,4.05,0,1.78,1.94,4.24,4.05,5.46.98.56,1.91,1.1,2.69,1.45.61.28,1.3.31,1.94.09.94-.33,2.08-.89,3.27-1.54,1.98-1.09,4.05-3.59,4.05-5.46,0-2.24-1.81-4.05-4.05-4.05Z"/>
  <path class="cls-1" d="m877.39,543.48c-4.74,0-8.71,3.32-9.71,7.76-1-4.44-4.97-7.76-9.71-7.76-5.5,0-9.96,4.46-9.96,9.96,0,4.37,4.76,10.44,9.96,13.42,2.42,1.38,4.7,2.7,6.62,3.57,1.5.68,3.2.76,4.76.22,2.31-.8,5.11-2.18,8.05-3.79,4.88-2.68,9.96-8.83,9.96-13.42,0-5.5-4.46-9.96-9.96-9.96Z"/>
  <path class="cls-1" d="m1039.39,576.48c-4.74,0-8.71,3.32-9.71,7.76-1-4.44-4.97-7.76-9.71-7.76-5.5,0-9.96,4.46-9.96,9.96,0,4.37,4.76,10.44,9.96,13.42,2.42,1.38,4.7,2.7,6.62,3.57,1.5.68,3.2.76,4.76.22,2.31-.8,5.11-2.18,8.05-3.79,4.88-2.68,9.96-8.83,9.96-13.42,0-5.5-4.46-9.96-9.96-9.96Z"/>
  <path class="cls-1" d="m1133.66,653.71c-3.5,0-6.42,2.45-7.16,5.72-.74-3.27-3.66-5.72-7.16-5.72-4.05,0-7.34,3.29-7.34,7.34,0,3.22,3.51,7.69,7.34,9.89,1.78,1.02,3.46,1.99,4.88,2.63,1.1.5,2.36.56,3.51.16,1.7-.59,3.76-1.6,5.93-2.8,3.6-1.98,7.34-6.51,7.34-9.89,0-4.05-3.29-7.34-7.34-7.34Z"/>
  <path class="cls-1" d="m1179.66,426.71c-3.5,0-6.42,2.45-7.16,5.72-.74-3.27-3.66-5.72-7.16-5.72-4.05,0-7.34,3.29-7.34,7.34,0,3.22,3.51,7.69,7.34,9.89,1.78,1.02,3.46,1.99,4.88,2.63,1.1.5,2.36.56,3.51.16,1.7-.59,3.76-1.6,5.93-2.8,3.6-1.98,7.34-6.51,7.34-9.89,0-4.05-3.29-7.34-7.34-7.34Z"/>
  <path class="cls-1" d="m1344.66,699.71c-3.5,0-6.42,2.45-7.16,5.72-.74-3.27-3.66-5.72-7.16-5.72-4.05,0-7.34,3.29-7.34,7.34,0,3.22,3.51,7.69,7.34,9.89,1.78,1.02,3.46,1.99,4.88,2.63,1.1.5,2.36.56,3.51.16,1.7-.59,3.76-1.6,5.93-2.8,3.6-1.98,7.34-6.51,7.34-9.89,0-4.05-3.29-7.34-7.34-7.34Z"/>
  <path class="cls-1" d="m1383.66,313.71c-3.5,0-6.42,2.45-7.16,5.72-.74-3.27-3.66-5.72-7.16-5.72-4.05,0-7.34,3.29-7.34,7.34,0,3.22,3.51,7.69,7.34,9.89,1.78,1.02,3.46,1.99,4.88,2.63,1.1.5,2.36.56,3.51.16,1.7-.59,3.76-1.6,5.93-2.8,3.6-1.98,7.34-6.51,7.34-9.89,0-4.05-3.29-7.34-7.34-7.34Z"/>
  <path class="cls-1" d="m1307.86,603.71c-5.31,0-9.74,3.71-10.86,8.68-1.12-4.97-5.56-8.68-10.86-8.68-6.15,0-11.14,4.99-11.14,11.14,0,4.89,5.32,11.67,11.14,15,2.7,1.55,5.26,3.02,7.4,4,1.68.76,3.58.85,5.32.25,2.58-.9,5.71-2.43,9-4.24,5.46-3,11.14-9.88,11.14-15,0-6.15-4.99-11.14-11.14-11.14Z"/>
  <path class="cls-1" d="m1114.86,226.71c-5.31,0-9.74,3.71-10.86,8.68-1.12-4.97-5.56-8.68-10.86-8.68-6.15,0-11.14,4.99-11.14,11.14,0,4.89,5.32,11.67,11.14,15,2.7,1.55,5.26,3.02,7.4,4,1.68.76,3.58.85,5.32.25,2.58-.9,5.71-2.43,9-4.24,5.46-3,11.14-9.88,11.14-15,0-6.15-4.99-11.14-11.14-11.14Z"/>
  <path class="cls-1" d="m852.65,265.41c-3.98,0-7.31,2.78-8.15,6.51-.84-3.72-4.17-6.51-8.15-6.51-4.61,0-8.35,3.74-8.35,8.35,0,3.66,3.99,8.76,8.35,11.25,2.03,1.16,3.94,2.27,5.55,3,1.26.57,2.69.64,3.99.18,1.94-.67,4.28-1.83,6.75-3.18,4.09-2.25,8.35-7.41,8.35-11.25,0-4.61-3.74-8.35-8.35-8.35Z"/>
  <path class="cls-1" d="m978.27,669.71c-5.05,0-9.27,3.53-10.33,8.26-1.07-4.73-5.29-8.26-10.33-8.26-5.85,0-10.6,4.74-10.6,10.6,0,4.65,5.06,11.11,10.6,14.28,2.57,1.47,5,2.87,7.04,3.8,1.6.72,3.41.81,5.06.23,2.46-.85,5.43-2.32,8.56-4.04,5.19-2.86,10.6-9.4,10.6-14.28,0-5.85-4.74-10.6-10.6-10.6Z"/>
  <path class="cls-1" d="m942.43,486.71c-2.65,0-4.87,1.86-5.43,4.34-.56-2.48-2.78-4.34-5.43-4.34-3.08,0-5.57,2.49-5.57,5.57,0,2.44,2.66,5.84,5.57,7.5,1.35.77,2.63,1.51,3.7,2,.84.38,1.79.43,2.66.12,1.29-.45,2.85-1.22,4.5-2.12,2.73-1.5,5.57-4.94,5.57-7.5,0-3.08-2.49-5.57-5.57-5.57Z"/>
  <path class="cls-1" d="m991.63,410.71c-4.46,0-8.19,3.12-9.13,7.3-.94-4.18-4.67-7.3-9.13-7.3-5.17,0-9.37,4.19-9.37,9.37,0,4.11,4.48,9.82,9.37,12.62,2.27,1.3,4.42,2.54,6.23,3.36,1.41.64,3.01.72,4.47.21,2.17-.76,4.8-2.05,7.57-3.57,4.59-2.52,9.37-8.3,9.37-12.62,0-5.17-4.19-9.37-9.37-9.37Z"/>
  <path class="cls-1" d="m694.46,477.97c-1.69,0-3.1,1.18-3.46,2.76-.36-1.58-1.77-2.76-3.46-2.76-1.96,0-3.54,1.59-3.54,3.54,0,1.55,1.69,3.71,3.54,4.77.86.49,1.67.96,2.36,1.27.53.24,1.14.27,1.69.08.82-.29,1.82-.77,2.86-1.35,1.74-.96,3.54-3.14,3.54-4.77,0-1.96-1.59-3.54-3.54-3.54Z"/>
  <path class="cls-1" d="m602.39,410.38c-4.1,0-7.53,2.87-8.39,6.7-.87-3.84-4.29-6.7-8.39-6.7-4.75,0-8.61,3.85-8.61,8.61,0,3.78,4.11,9.02,8.61,11.59,2.09,1.2,4.06,2.33,5.72,3.09,1.3.59,2.77.66,4.11.19,1.99-.69,4.41-1.88,6.95-3.28,4.22-2.32,8.61-7.63,8.61-11.59,0-4.75-3.85-8.61-8.61-8.61Z"/>
</svg>