<?xml version="1.0" encoding="UTF-8"?>
<svg id="Frame1" xmlns="http://www.w3.org/2000/svg" xmlns:xlink="http://www.w3.org/1999/xlink" viewBox="0 0 1920 1080">
  <defs>
    <style>
      .cls-1 {
        fill: url(#linear-gradient);
      }

      .cls-2 {
        fill: #9c9797;
      }

      .cls-3 {
        fill: #6ec256;
      }

      .cls-4 {
        fill: #549c40;
      }
    </style>
    <linearGradient id="linear-gradient" x1="868.06" y1="942.22" x2="1108.06" y2="942.22" gradientUnits="userSpaceOnUse">
      <stop offset="0" stop-color="#6ec256"/>
      <stop offset="1" stop-color="#9c9797"/>
    </linearGradient>
  </defs>
  <path class="cls-3" d="m546.19,786.29c-7.03-13.64,5.76-19.44-1.7-28.58-9.37-11.49-32.34-5.75-43.39-17.86-9.3-10.2,1.67-20.11-7.66-25.6-10.25-6.03-25.47,4.76-44.24-1.19-12.99-4.12-10.88-10.94-24.67-14.89-9.22-2.64-12.59-.29-35.73.6-30.99,1.18-35.89-2.61-45.94,1.79-12.41,5.43-8.16,12.63-21.27,18.46-15.12,6.72-26.77-.19-35.73,5.95-9.91,6.8,1.27,17.37-8.51,30.96-6.13,8.52-14.75,10.24-21.27,14.89-24.84,17.69-14.39,74.32,31.48,98.84,17.37,9.29,23.38,5.17,137.39,8.93,57.1,1.88,113.49,4.82,121.22-9.53,3.02-5.61-3.18-10.55,2.55-19.65,5.81-9.22,15.2-8.95,20.42-17.86,5.35-9.15.81-18.58-.85-22.03-6.06-12.59-16.36-12.06-22.12-23.22Z"/>
  <g>
    <ellipse class="cls-4" cx="689.24" cy="633.96" rx="19.95" ry="22.63"/>
    <path class="cls-4" d="m693.7,708.39c-.19,11.04-.52,29.77-12.5,35.73-8.95,4.45-23.31.71-28.58-8.34-2.97-5.09-2.54-10.98-2.38-12.5.55-5.39,2.79-7.16,4.76-11.91,4.66-11.24-1.47-16.92,1.79-36.32.68-4.05,1.4-6.47,2.98-8.93,4.05-6.3,11.04-8.59,14.72-9.47.23-.03.34-.05.46-.06,8.11-.53,19.2,26.82,18.76,51.8Z"/>
    <path class="cls-4" d="m691.83,739.36c5.62,7.46,10.79,14.31,11.57,23.87.07.91-.68,6.44-2.19,17.46-1.76,12.85-2.19,15.53-.53,18.82,3.43,6.78,11.59,7.88,11.03,9.73-.53,1.77-7.96.8-14.31-.03-4.59-.6-5.94-1.13-6.91-2.27-1.91-2.24-.85-5.13-.48-9.81.78-9.86-2.86-10.34-1.92-18.7.91-8.09,4.5-9.37,3.22-14.04-1.39-5.06-6.11-5.35-10.54-10.19-8.61-9.38-7.82-26.74-3.62-28.45,3.39-1.39,9.8,7.11,14.69,13.6Z"/>
    <path class="cls-4" d="m671.98,737.8c1.23,4.92,3.81,15.59-.81,26.52-.36.84-3.58,5.39-10.03,14.46-6.92,9.74-10.03,12.58-9.19,16.43,1.13,5.17,7.97,6.92,7.21,9.04-.68,1.9-6.53,1.43-9.53,1.19-4.3-.35-6.93-.56-8.34-2.38-1.5-1.96-.75-4.68,1.19-10.72,3.91-12.16,5.91-18.31,8.07-21.65,5.31-8.19,7.75-6.35,9.36-10.95,4.31-12.32-13.69-24.07-9.09-33.5,1.99-4.08,7.49-6.24,11.31-5.36,5.95,1.37,8.16,10.21,9.83,16.91Z"/>
    <path class="cls-4" d="m687.75,653.61c-.29,1.59-2.75,1.25-4.17,3.57-2.48,4.06,2.46,9.29.6,11.31-1.84,2-9.39-.13-10.72-4.17-.73-2.24,1.06-3.22,1.79-7.74.98-6.05-1.49-8.82,0-10.12,2.62-2.28,13.11,3.74,12.5,7.15Z"/>
    <path class="cls-4" d="m693.7,682.78c3.8,8.96,1.95,10.62,4.76,13.69,7.64,8.36,26,1.25,27.98,6.55.67,1.79-.96,3.87-1.19,4.17-5.34,6.82-27.98,4.83-38.11-8.34-9-11.69-6.13-29.6-2.98-30.37,2.62-.64,7.72,10.02,9.53,14.29Z"/>
    <path class="cls-4" d="m732.41,720.89c-.83.69-16.23-25.19-48.82-46.44-36.06-23.51-69.96-26.22-69.66-27.39.3-1.2,36.05-.32,70.26,21.44,33.06,21.03,49.11,51.66,48.23,52.4Z"/>
    <path class="cls-4" d="m635.95,674.45c.48,1.23,3.79,9.7-.6,15.48-4.74,6.26-16.18,6.34-21.44,1.19-4.23-4.15-3.56-10.84-2.98-16.67.77-7.63,3.2-7.95,5.95-20.84.82-3.86,1.44-7.75,2.38-7.74.7,0,.98,2.17,1.79,4.76,1.21,3.89,2.47,5.08,10.72,17.27,3.73,5.51,3.94,5.95,4.17,6.55Z"/>
  </g>
  <path class="cls-3" d="m959.75,816.4v263.82H385.17v-263.82c24.32-8.36,61.08-18.64,106.58-22.03,54.1-4.04,73.38,5.19,138.14,8.93,81.78,4.71,91.6-7.68,172.67-5.96,17.81.38,39.85,1.46,65.5,4.16,9.5,1.01,19.49,2.23,29.94,3.72,19.1,2.73,39.75,6.35,61.75,11.18Z"/>
  <rect class="cls-2" x="959.75" y="816.4" width="961.25" height="263.6"/>
  <circle class="cls-2" cx="1136.89" cy="394.74" r="27.69"/>
  <circle class="cls-2" cx="1160.11" cy="414.38" r="27.69"/>
  <circle class="cls-2" cx="1164.88" cy="391.76" r="27.69"/>
  <circle class="cls-2" cx="1189.29" cy="419.74" r="27.69"/>
  <circle class="cls-2" cx="1418.23" cy="328.44" r="11.31"/>
  <circle class="cls-2" cx="1406.92" cy="317.12" r="11.31"/>
  <circle class="cls-2" cx="1507.54" cy="323.67" r="11.31"/>
  <circle class="cls-2" cx="1514.39" cy="305.51" r="15.18"/>
  <circle class="cls-2" cx="1499.21" cy="293.31" r="11.91"/>
  <circle class="cls-2" cx="1420.01" cy="298.67" r="18.46"/>
  <circle class="cls-2" cx="1206.55" cy="445.35" r="18.76"/>
  <circle class="cls-2" cx="1209.53" cy="460.83" r="16.37"/>
  <circle class="cls-2" cx="1098.78" cy="470.35" r="8.04"/>
  <circle class="cls-2" cx="1090.45" cy="458.45" r="13.4"/>
  <circle class="cls-2" cx="1124.68" cy="478.39" r="6.55"/>
  <circle class="cls-2" cx="1129.75" cy="463.81" r="12.21"/>
  <circle class="cls-2" cx="1119.62" cy="450.71" r="12.21"/>
  <circle class="cls-2" cx="1091.64" cy="442.37" r="10.42"/>
  <path class="cls-2" d="m1691.98,319.45c0-.24,0-.47,0-.71-.09.12-.18.23-.26.35-.09-.12-.18-.23-.26-.35,0,.24,0,.47,0,.71-53.41,71.02-106.82,142.03-160.23,213.05,14.6-2.03,21.44-2.98,21.44-2.98,0,0,6.73,231.22,9.53,327.48h259.08c2.8-96.27,9.53-327.47,9.53-327.48,0,0,6.84.95,21.44,2.98-53.41-71.02-106.82-142.03-160.23-213.05Z"/>
  <path class="cls-2" d="m1591.38,706.36h-13.69v-285.8c1.11.62,3.42,1.72,6.55,1.79,3.46.07,6.03-1.16,7.15-1.79v285.8Z"/>
  <path class="cls-3" d="m0,1080h385v-264c-17.8-6.62-45.84-15.37-81-19-60.12-6.2-94.65,7.39-172,15-26.14,2.57-84.56,5.18-132,4v264Z"/>
  <path class="cls-1" d="m1108.06,816.4v266.54h-240v-281.44c9.5,1.01,19.49,2.23,29.94,3.72,19.1,2.73,39.75,6.35,61.75,11.18h148.31Z"/>
</svg>