<?xml version="1.0" encoding="UTF-8"?>
<svg id="Frame2" xmlns="http://www.w3.org/2000/svg" viewBox="0 0 1920 1080">
  <defs>
    <style>
      .cls-1 {
        fill: #549c40;
      }
    </style>
  </defs>
  <g>
    <path class="cls-1" d="m531.71,587.5c5.26,12.4,4.54,40.01,3.1,95.21-1.45,55.86-5.26,81.25,8.69,99.12,4.78,6.13,9.67,8.82,19.24,21.85,8.88,12.08,20.6,31.44,18,35.12-4.79,6.76-53.18-46.69-65.16-33.56-6.52,7.15,2.38,28.19-4.34,33.56-7.1,5.67-18.66-16.46-38.48-16.39-16.95.06-25.13,16.31-29.17,12.49-7.36-6.97,24.1-56.93,34.75-125.65,5.25-33.9,10.59-61.54,1.24-91.7-11.23-36.23-37.31-58.64-34.13-63.61,2.86-4.48,22.85,15.64,28.55,9.37,10.36-11.4-37.78-97.47-31.65-103.02,2.53-2.29,13.37,9.98,14.89,11.71,9.63,10.91,12.44,20.3,14.27,19.51,4.27-1.84-7.19-54.47-3.1-56.19,2.37-1,5.93,16.9,13.65,17.95,12.58,1.7,23.85-42.93,29.79-40.58,2.66,1.05,3.15,11.07,1.86,19.51-3.04,19.97-15.13,25.29-24.2,44.49-1.38,2.92-10.54,22.3-8.69,41.36,3.15,32.46,35.14,32.31,50.89,69.46Z"/>
    <path class="cls-1" d="m586.08,424.57c0-3.63-.64-6.06-.94-7.68-1.27-6.92,1.4-10.87,2.14-17,1.35-11.18-4.74-20.96-6.64-24.01-5.55-8.91-9.09-6.16-18.11-16.58-8.82-10.19-7.67-15.41-14.49-18.65-4.76-2.26-12.45-3.1-18.11,1.04-4.67,3.41-5.85,8.66-9.05,8.29-2.62-.3-2.96-3.93-6.34-6.22-4.37-2.97-9.46-.75-12.68,0-16.49,3.83-25.78-21.35-42.55-17.61-5.51,1.23-6.62,4.42-17.2,7.25-5.28,1.41-9.73,1.89-12.68,2.07-2.31,3.93-5.45,10.23-7.24,18.65-1.44,6.78-.67,8.68-2.36,11.88-4.43,8.4-13.65,2.72-23.9,9.88-10.14,7.08-17,23.74-21.73,35.22-.65,1.57-1.84,4.58-4.53,7.25-5.6,5.57-12.76,4.81-16.3,5.18-13.17,1.37-28.76,23.91-28.97,46.62-.27,29.57,25.61,51.06,45.27,51.8,2.69.1,7.7.29,13.44-2.32,15.14-6.89,18.53-25.62,31.59-26,2.43-.07,2,.59,3.86.35,12.29-1.58,16.09-28.54,24.44-27.97,1.89.13,2.29,1.55,7.49,2.98,3.43.94,6.21,1.16,6.99,1.16,13.5,0,24.44-12.52,24.44-27.97,0-3.23-2.09-5.54-.91-7.57,1.83-3.14,8.38-2.18,10.05-1.93,3.34.49,4.14,1.5,7.16,1.22,1.32-.12,2.36-.42,4.76-.53,3.45-.16,4.08.34,4.29.53.73.66,1.48,2.23.72,6.76-1.57,9.39-6.35,12.09-8.69,21.23-.45,1.76-1.09,4.66-1.09,8.27,0,15.45,10.94,27.97,24.44,27.97,2.7,0,2.47-.8,5.4-.69,7.5.28,10.45,5.59,18.74,8.45.26.09,4.82,1.56,9.36,1.56,18,0,32.59-16.7,32.59-37.3,0-.29-.48-3.85-1.43-10.97-2.57-19.1-3.32-21.83-2.28-26.67.31-1.44,1-4.12,1-7.94Z"/>
    <path class="cls-1" d="m448.46,552.86c0-15.45-10.94-27.97-24.44-27.97-5.14,0-9.9,1.82-13.83,4.91-10.76,2.93-18.76,14-18.76,27.2,0,10.11,4.69,18.97,11.71,23.88,2.81,11.91,12.31,20.67,23.6,20.67,13.5,0,24.44-12.52,24.44-27.97,0-5.19-1.24-10.04-3.39-14.21.44-2.09.67-4.27.67-6.51Z"/>
  </g>
  <path class="cls-1" d="m402,744c1.94,8.08,7.85,11.57,12,16,17.25,18.41,13.82,63.54-4,86-14.23,17.93-30.17,12-135,18-64.48,3.69-85.38,7.47-106-9-15.3-12.22-30.84-35.92-26-56,3.42-14.21,13.99-13.91,20-33,6.39-20.3-1.41-33.81,8-41,3.16-2.41,9.11-3.28,21-5,12.67-1.84,16.85-.78,19-4,3.77-5.64-5.85-13.69-2-22,2.33-5.03,8.43-7.62,13-8,8.77-.73,11.02,6.76,19,8,14.07,2.18,19.18-19.24,37-21,12.93-1.28,14.91,9.54,32,10,16.19.44,20.14-9.12,31-6,12.62,3.62,10.09,17.34,24,26,18.36,11.43,40.07-1.67,45,7,4.3,7.57-11.72,18.51-8,34Z"/>
</svg>