<?xml version="1.0" encoding="UTF-8"?>
<svg id="Frame4" xmlns="http://www.w3.org/2000/svg" viewBox="0 0 1920 1080">
  <defs>
    <style>
      .cls-1 {
        fill: #6a8599;
      }

      .cls-2 {
        fill: #34404a;
      }
    </style>
  </defs>
  <g>
    <path class="cls-2" d="m1134.31,490.04c-30.19,22.39-61.01,27.32-83.07,30.59-29.61,4.39-62.84,9.31-81.94-10.1-6.62-6.72-9.96-14.76-12.35-20.49-1.12-2.69-14.31-35.18-2.81-47.99,8.36-9.31,23.54-1.31,54.44,2.25,14.39,1.65,52.25-.58,127.97-5.05,19.59-1.16,30.65-1.92,33.68,3.93,5.41,10.43-18.76,34.14-35.92,46.87Z"/>
    <path class="cls-2" d="m1097.26,371.89c.92-2.09,2.83-6.44,3.93-6.17,1.72.41.16,11.76-2.25,31.99-4.38,36.88-3.79,37.92-6.17,48.83-3.88,17.77-9.84,35.12-11.23,34.8-.86-.2.58-7,2.81-25.26,3.03-24.87,4.15-36.33,7.3-57.25.29-1.92-.07-14.01,5.61-26.94Z"/>
    <path class="cls-2" d="m1127.01,422.41c-8.17,11.97-32.24,5.9-35.36,5.05-1.46-.4-16.18-4.53-16.28-10.66-.08-4.84,9.04-5.29,11.79-12.91,3.3-9.14-6.42-18.02-2.81-21.89,1.57-1.68,5.31-.81,12.91,0,4.8.51,9.96,1.63,12.91,2.81,12.99,5.17,23.75,27.49,16.84,37.6Z"/>
    <path class="cls-2" d="m1039.49,346.71c1.13-2.58,3.48-7.92,4.83-7.59,2.12.5.19,14.46-2.76,39.35-5.39,45.37-4.66,46.65-7.59,60.06-4.77,21.86-12.1,43.2-13.81,42.8-1.05-.25.71-8.61,3.45-31.07,3.73-30.6,5.11-44.69,8.98-70.42.36-2.37-.09-17.23,6.9-33.14Z"/>
    <path class="cls-2" d="m1069.19,419.98c-4.22,8.91-15.1,8.47-36.85,7.59-9.73-.39-28.06-.84-30.41-8.44-2.38-7.67,14.78-12.04,19.56-30.41,3.69-14.16-2.9-25.42,3.25-29.49,2.73-1.8,6.41-1.08,13.45,0,5,.77,10.38,2.46,13.45,4.22,13.54,7.76,24.75,41.32,17.55,56.52Z"/>
    <path class="cls-2" d="m1041.14,344.95c1.7,2.64-.37,8.07-3.93,10.1-1.4.8-2.18.59-7.86.56-8.63-.04-10.54.44-11.79-1.12-.89-1.11-.78-2.8-.56-6.17.24-3.69.36-5.66,1.68-6.74,1.74-1.41,3.97,0,9.54,1.12,8.59,1.73,11.47,0,12.91,2.25Z"/>
  </g>
  <path class="cls-1" d="m1923,1080H0V412.66c72.25-33.3,179.1-68.08,302-49.1,150.8,23.28,172.12,103.78,328,131.68,158.95,28.46,182.75-47.01,379-30.13,184.44,15.86,166.22,82.76,306,79.23,165.4-4.17,222.74-98.64,454-126.1,64.97-7.72,118.85-7.19,154-5.58v667.34Z"/>
</svg>