<?xml version="1.0" encoding="UTF-8"?>
<svg id="Frame3" xmlns="http://www.w3.org/2000/svg" viewBox="0 0 1920 1080">
  <defs>
    <style>
      .cls-1 {
        fill: #455663;
      }

      .cls-2 {
        fill: #7695ab;
      }
    </style>
  </defs>
  <g>
    <path class="cls-1" d="m755.84,655.37c-41.68,30.91-84.23,37.72-114.67,42.23-40.87,6.06-86.75,12.85-113.13-13.95-9.13-9.28-13.76-20.38-17.05-28.28-1.55-3.72-19.75-48.56-3.87-66.25,11.54-12.85,32.49-1.81,75.16,3.1,19.86,2.28,72.13-.8,176.66-6.97,27.05-1.6,42.31-2.64,46.49,5.42,7.46,14.4-25.9,47.13-49.59,64.7Z"/>
    <path class="cls-1" d="m704.71,492.27c1.27-2.89,3.9-8.89,5.42-8.52,2.37.57.22,16.23-3.1,44.17-6.05,50.92-5.23,52.35-8.52,67.41-5.36,24.53-13.58,48.49-15.5,48.04-1.18-.28.8-9.66,3.87-34.87,4.19-34.34,5.73-50.16,10.07-79.03.4-2.66-.1-19.34,7.75-37.19Z"/>
    <path class="cls-1" d="m745.77,562c-11.28,16.52-44.51,8.15-48.81,6.97-2.01-.55-22.33-6.26-22.47-14.72-.11-6.68,12.47-7.31,16.27-17.82,4.56-12.62-8.87-24.87-3.87-30.22,2.17-2.33,7.33-1.12,17.82,0,6.62.7,13.75,2.26,17.82,3.87,17.93,7.13,32.78,37.95,23.24,51.91Z"/>
    <path class="cls-1" d="m624.95,457.5c1.56-3.56,4.8-10.93,6.67-10.48,2.92.7.27,19.97-3.81,54.33-7.44,62.63-6.44,64.4-10.48,82.92-6.59,30.18-16.7,59.64-19.06,59.09-1.45-.34.98-11.88,4.77-42.89,5.15-42.24,7.05-61.7,12.39-97.22.49-3.27-.12-23.79,9.53-45.75Z"/>
    <path class="cls-1" d="m665.96,558.66c-5.83,12.31-20.84,11.7-50.87,10.48-13.44-.54-38.73-1.16-41.99-11.65-3.29-10.59,20.4-16.62,27-41.98,5.09-19.55-4.01-35.09,4.49-40.71,3.77-2.49,8.85-1.49,18.57,0,6.9,1.06,14.33,3.39,18.57,5.82,18.69,10.72,34.16,57.04,24.22,78.03Z"/>
    <path class="cls-1" d="m627.22,455.08c2.34,3.65-.51,11.14-5.42,13.95-1.93,1.1-3,.81-10.85.77-11.92-.05-14.55.6-16.27-1.55-1.22-1.53-1.07-3.86-.77-8.52.33-5.1.5-7.82,2.32-9.3,2.4-1.95,5.48,0,13.17,1.55,11.87,2.39,15.84.01,17.82,3.1Z"/>
  </g>
  <path class="cls-2" d="m1926,1080H0v-466c41.34,29.78,105.74,67.1,189,78,138.62,18.15,194.54-54.6,351-68,155.33-13.31,172.33,52.21,337,57,177.71,5.16,257.28-68.26,408-113,138.94-41.25,346.82-60.64,641,46v466Z"/>
</svg>