<?xml version="1.0" encoding="UTF-8"?>
<svg id="Frame1" xmlns="http://www.w3.org/2000/svg" viewBox="0 0 1920 1080">
  <defs>
    <style>
      .cls-1 {
        fill: #455663;
      }

      .cls-2 {
        fill: #89adc7;
      }
    </style>
  </defs>
  <g>
    <path class="cls-1" d="m1438.4,807.81c-41.68,30.91-84.23,37.72-114.67,42.23-40.87,6.06-86.75,12.85-113.13-13.95-9.13-9.28-13.76-20.38-17.05-28.28-1.55-3.72-19.75-48.56-3.87-66.25,11.54-12.85,32.49-1.81,75.16,3.1,19.86,2.28,72.13-.8,176.66-6.97,27.05-1.6,42.31-2.64,46.49,5.42,7.46,14.4-25.9,47.13-49.59,64.7Z"/>
    <path class="cls-1" d="m1387.26,654.71c1.27-2.89,3.9-8.89,5.42-8.52,2.37.57.22,16.23-3.1,44.17-6.05,50.92-5.23,52.35-8.52,67.41-5.36,24.53-13.58,48.49-15.5,48.04-1.18-.28.8-9.66,3.87-34.87,4.19-34.34,5.73-50.16,10.07-79.03.4-2.66-.1-19.34,7.75-37.19Z"/>
    <path class="cls-1" d="m1428.32,715.75c-11.28,14.39-44.51,7.1-48.81,6.07-2.01-.48-22.33-5.45-22.47-12.82-.11-5.82,12.47-6.37,16.27-15.52,4.56-10.99-8.87-21.66-3.87-26.32,2.17-2.03,7.33-.97,17.82,0,6.62.61,13.75,1.96,17.82,3.37,17.93,6.21,32.78,33.05,23.24,45.22Z"/>
    <path class="cls-1" d="m1307.51,609.94c1.56-3.56,4.8-10.93,6.67-10.48,2.92.7.27,19.97-3.81,54.33-7.44,62.63-6.44,64.4-10.48,82.92-6.59,30.18-16.7,59.64-19.06,59.09-1.45-.34.98-11.88,4.77-42.89,5.15-42.24,7.05-61.7,12.39-97.22.49-3.27-.12-23.79,9.53-45.75Z"/>
    <path class="cls-1" d="m1348.51,713.08c-5.83,10.1-20.84,9.6-50.87,8.61-13.44-.45-38.73-.95-41.99-9.56-3.29-8.69,20.4-13.64,27-34.46,5.09-16.05-4.01-28.81,4.49-33.42,3.77-2.04,8.85-1.22,18.57,0,6.9.87,14.33,2.78,18.57,4.78,18.69,8.8,34.16,46.83,24.22,64.06Z"/>
    <path class="cls-1" d="m1309.77,607.51c2.34,3.65-.51,11.14-5.42,13.95-1.93,1.1-3,.81-10.85.77-11.92-.05-14.55.6-16.27-1.55-1.22-1.53-1.07-3.86-.77-8.52.33-5.1.5-7.82,2.32-9.3,2.4-1.95,5.48,0,13.17,1.55,11.87,2.39,15.84.01,17.82,3.1Z"/>
    <ellipse class="cls-1" cx="1306.5" cy="631.5" rx="13.5" ry="3.5"/>
  </g>
  <path class="cls-2" d="m1923,1080H0v-259.99c70.87-33.3,176.68-69.43,302-57.24,189.08,18.38,235.87,128.58,395,115.68,153.67-12.46,156.29-118.98,326-141.92,171-23.12,178.12,83.71,369,71.56,165.63-10.55,231.05-95.5,383-58.44,66.11,16.12,116.74,47.57,148,70.36v259.99Z"/>
</svg>